<?xml version="1.0" encoding="utf-8" standalone="no"?>
<!DOCTYPE svg PUBLIC "-//W3C//DTD SVG 1.1//EN"
  "http://www.w3.org/Graphics/SVG/1.1/DTD/svg11.dtd">
<svg xmlns:xlink="http://www.w3.org/1999/xlink" width="460.8pt" height="345.6pt" viewBox="0 0 460.8 345.6" xmlns="http://www.w3.org/2000/svg" version="1.1">
 <metadata>
  <rdf:RDF xmlns:dc="http://purl.org/dc/elements/1.1/" xmlns:cc="http://creativecommons.org/ns#" xmlns:rdf="http://www.w3.org/1999/02/22-rdf-syntax-ns#">
   <cc:Work>
    <dc:type rdf:resource="http://purl.org/dc/dcmitype/StillImage"/>
    <dc:date>2023-11-10T10:56:38.998059</dc:date>
    <dc:format>image/svg+xml</dc:format>
    <dc:creator>
     <cc:Agent>
      <dc:title>Matplotlib v3.8.1, https://matplotlib.org/</dc:title>
     </cc:Agent>
    </dc:creator>
   </cc:Work>
  </rdf:RDF>
 </metadata>
 <defs>
  <style type="text/css">*{stroke-linejoin: round; stroke-linecap: butt}</style>
 </defs>
 <g id="figure_1">
  <g id="patch_1">
   <path d="M 0 345.6 
L 460.8 345.6 
L 460.8 0 
L 0 0 
z
" style="fill: #ffffff"/>
  </g>
  <g id="axes_1">
   <g id="patch_2">
    <path d="M 57.6 307.584 
L 414.72 307.584 
L 414.72 41.472 
L 57.6 41.472 
z
" style="fill: #ffffff"/>
   </g>
   <g id="patch_3">
    <path d="M 73.832727 180.637091 
L 86.319441 180.637091 
L 86.319441 175.749818 
L 73.832727 175.749818 
z
" clip-path="url(#p9de18965fd)" style="fill: #008000"/>
   </g>
   <g id="patch_4">
    <path d="M 76.985938 180.637091 
L 89.472651 180.637091 
L 89.472651 175.77501 
L 76.985938 175.77501 
z
" clip-path="url(#p9de18965fd)" style="fill: #008000"/>
   </g>
   <g id="patch_5">
    <path d="M 80.139148 180.637091 
L 92.625861 180.637091 
L 92.625861 175.801263 
L 80.139148 175.801263 
z
" clip-path="url(#p9de18965fd)" style="fill: #008000"/>
   </g>
   <g id="patch_6">
    <path d="M 83.292359 180.637091 
L 95.779072 180.637091 
L 95.779072 175.828645 
L 83.292359 175.828645 
z
" clip-path="url(#p9de18965fd)" style="fill: #008000"/>
   </g>
   <g id="patch_7">
    <path d="M 86.445569 180.637091 
L 98.932282 180.637091 
L 98.932282 175.857231 
L 86.445569 175.857231 
z
" clip-path="url(#p9de18965fd)" style="fill: #008000"/>
   </g>
   <g id="patch_8">
    <path d="M 89.598779 180.637091 
L 102.085493 180.637091 
L 102.085493 175.887101 
L 89.598779 175.887101 
z
" clip-path="url(#p9de18965fd)" style="fill: #008000"/>
   </g>
   <g id="patch_9">
    <path d="M 92.75199 180.637091 
L 105.238703 180.637091 
L 105.238703 175.918345 
L 92.75199 175.918345 
z
" clip-path="url(#p9de18965fd)" style="fill: #008000"/>
   </g>
   <g id="patch_10">
    <path d="M 95.9052 180.637091 
L 108.391914 180.637091 
L 108.391914 175.951059 
L 95.9052 175.951059 
z
" clip-path="url(#p9de18965fd)" style="fill: #008000"/>
   </g>
   <g id="patch_11">
    <path d="M 99.058411 180.637091 
L 111.545124 180.637091 
L 111.545124 175.985349 
L 99.058411 175.985349 
z
" clip-path="url(#p9de18965fd)" style="fill: #008000"/>
   </g>
   <g id="patch_12">
    <path d="M 102.211621 180.637091 
L 114.698334 180.637091 
L 114.698334 176.021333 
L 102.211621 176.021333 
z
" clip-path="url(#p9de18965fd)" style="fill: #008000"/>
   </g>
   <g id="patch_13">
    <path d="M 105.364832 180.637091 
L 117.851545 180.637091 
L 117.851545 176.059139 
L 105.364832 176.059139 
z
" clip-path="url(#p9de18965fd)" style="fill: #008000"/>
   </g>
   <g id="patch_14">
    <path d="M 108.518042 180.637091 
L 121.004755 180.637091 
L 121.004755 176.098909 
L 108.518042 176.098909 
z
" clip-path="url(#p9de18965fd)" style="fill: #008000"/>
   </g>
   <g id="patch_15">
    <path d="M 111.671252 180.637091 
L 124.157966 180.637091 
L 124.157966 176.1408 
L 111.671252 176.1408 
z
" clip-path="url(#p9de18965fd)" style="fill: #008000"/>
   </g>
   <g id="patch_16">
    <path d="M 114.824463 180.637091 
L 127.311176 180.637091 
L 127.311176 176.184986 
L 114.824463 176.184986 
z
" clip-path="url(#p9de18965fd)" style="fill: #008000"/>
   </g>
   <g id="patch_17">
    <path d="M 117.977673 180.637091 
L 130.464387 180.637091 
L 130.464387 176.231662 
L 117.977673 176.231662 
z
" clip-path="url(#p9de18965fd)" style="fill: #008000"/>
   </g>
   <g id="patch_18">
    <path d="M 121.130884 180.637091 
L 133.617597 180.637091 
L 133.617597 176.281043 
L 121.130884 176.281043 
z
" clip-path="url(#p9de18965fd)" style="fill: #008000"/>
   </g>
   <g id="patch_19">
    <path d="M 124.284094 180.637091 
L 136.770807 180.637091 
L 136.770807 176.333373 
L 124.284094 176.333373 
z
" clip-path="url(#p9de18965fd)" style="fill: #008000"/>
   </g>
   <g id="patch_20">
    <path d="M 127.437305 180.637091 
L 139.924018 180.637091 
L 139.924018 176.388923 
L 127.437305 176.388923 
z
" clip-path="url(#p9de18965fd)" style="fill: #008000"/>
   </g>
   <g id="patch_21">
    <path d="M 130.590515 180.637091 
L 143.077228 180.637091 
L 143.077228 176.448 
L 130.590515 176.448 
z
" clip-path="url(#p9de18965fd)" style="fill: #008000"/>
   </g>
   <g id="patch_22">
    <path d="M 133.743725 180.637091 
L 146.230439 180.637091 
L 146.230439 176.510951 
L 133.743725 176.510951 
z
" clip-path="url(#p9de18965fd)" style="fill: #008000"/>
   </g>
   <g id="patch_23">
    <path d="M 136.896936 180.637091 
L 149.383649 180.637091 
L 149.383649 176.578169 
L 136.896936 176.578169 
z
" clip-path="url(#p9de18965fd)" style="fill: #008000"/>
   </g>
   <g id="patch_24">
    <path d="M 140.050146 180.637091 
L 152.53686 180.637091 
L 152.53686 176.650105 
L 140.050146 176.650105 
z
" clip-path="url(#p9de18965fd)" style="fill: #008000"/>
   </g>
   <g id="patch_25">
    <path d="M 143.203357 180.637091 
L 155.69007 180.637091 
L 155.69007 176.727273 
L 143.203357 176.727273 
z
" clip-path="url(#p9de18965fd)" style="fill: #008000"/>
   </g>
   <g id="patch_26">
    <path d="M 146.356567 180.637091 
L 158.84328 180.637091 
L 158.84328 176.810264 
L 146.356567 176.810264 
z
" clip-path="url(#p9de18965fd)" style="fill: #008000"/>
   </g>
   <g id="patch_27">
    <path d="M 149.509777 180.637091 
L 161.996491 180.637091 
L 161.996491 176.899765 
L 149.509777 176.899765 
z
" clip-path="url(#p9de18965fd)" style="fill: #008000"/>
   </g>
   <g id="patch_28">
    <path d="M 152.662988 180.637091 
L 165.149701 180.637091 
L 165.149701 176.996571 
L 152.662988 176.996571 
z
" clip-path="url(#p9de18965fd)" style="fill: #008000"/>
   </g>
   <g id="patch_29">
    <path d="M 155.816198 180.637091 
L 168.302912 180.637091 
L 168.302912 177.101617 
L 155.816198 177.101617 
z
" clip-path="url(#p9de18965fd)" style="fill: #008000"/>
   </g>
   <g id="patch_30">
    <path d="M 158.969409 180.637091 
L 171.456122 180.637091 
L 171.456122 177.216 
L 158.969409 177.216 
z
" clip-path="url(#p9de18965fd)" style="fill: #008000"/>
   </g>
   <g id="patch_31">
    <path d="M 162.122619 180.637091 
L 174.609332 180.637091 
L 174.609332 177.341023 
L 162.122619 177.341023 
z
" clip-path="url(#p9de18965fd)" style="fill: #008000"/>
   </g>
   <g id="patch_32">
    <path d="M 165.27583 180.637091 
L 177.762543 180.637091 
L 177.762543 177.478244 
L 165.27583 177.478244 
z
" clip-path="url(#p9de18965fd)" style="fill: #008000"/>
   </g>
   <g id="patch_33">
    <path d="M 168.42904 180.637091 
L 180.915753 180.637091 
L 180.915753 177.629538 
L 168.42904 177.629538 
z
" clip-path="url(#p9de18965fd)" style="fill: #008000"/>
   </g>
   <g id="patch_34">
    <path d="M 171.58225 180.637091 
L 184.068964 180.637091 
L 184.068964 177.797189 
L 171.58225 177.797189 
z
" clip-path="url(#p9de18965fd)" style="fill: #008000"/>
   </g>
   <g id="patch_35">
    <path d="M 174.735461 180.637091 
L 187.222174 180.637091 
L 187.222174 177.984 
L 174.735461 177.984 
z
" clip-path="url(#p9de18965fd)" style="fill: #008000"/>
   </g>
   <g id="patch_36">
    <path d="M 177.888671 180.637091 
L 190.375385 180.637091 
L 190.375385 178.193455 
L 177.888671 178.193455 
z
" clip-path="url(#p9de18965fd)" style="fill: #008000"/>
   </g>
   <g id="patch_37">
    <path d="M 181.041882 180.637091 
L 193.528595 180.637091 
L 193.528595 178.429935 
L 181.041882 178.429935 
z
" clip-path="url(#p9de18965fd)" style="fill: #008000"/>
   </g>
   <g id="patch_38">
    <path d="M 184.195092 180.637091 
L 196.681805 180.637091 
L 196.681805 178.699034 
L 184.195092 178.699034 
z
" clip-path="url(#p9de18965fd)" style="fill: #008000"/>
   </g>
   <g id="patch_39">
    <path d="M 187.348303 180.637091 
L 199.835016 180.637091 
L 199.835016 179.008 
L 187.348303 179.008 
z
" clip-path="url(#p9de18965fd)" style="fill: #008000"/>
   </g>
   <g id="patch_40">
    <path d="M 190.501513 180.637091 
L 202.988226 180.637091 
L 202.988226 179.3664 
L 190.501513 179.3664 
z
" clip-path="url(#p9de18965fd)" style="fill: #008000"/>
   </g>
   <g id="patch_41">
    <path d="M 193.654723 180.637091 
L 206.141437 180.637091 
L 206.141437 179.78713 
L 193.654723 179.78713 
z
" clip-path="url(#p9de18965fd)" style="fill: #008000"/>
   </g>
   <g id="patch_42">
    <path d="M 196.807934 180.637091 
L 209.294647 180.637091 
L 209.294647 180.288 
L 196.807934 180.288 
z
" clip-path="url(#p9de18965fd)" style="fill: #008000"/>
   </g>
   <g id="patch_43">
    <path d="M 199.961144 180.637091 
L 212.447858 180.637091 
L 212.447858 180.894316 
L 199.961144 180.894316 
z
" clip-path="url(#p9de18965fd)" style="fill: #008000"/>
   </g>
   <g id="patch_44">
    <path d="M 203.114355 180.637091 
L 215.601068 180.637091 
L 215.601068 181.643294 
L 203.114355 181.643294 
z
" clip-path="url(#p9de18965fd)" style="fill: #008000"/>
   </g>
   <g id="patch_45">
    <path d="M 206.267565 180.637091 
L 218.754278 180.637091 
L 218.754278 182.592 
L 206.267565 182.592 
z
" clip-path="url(#p9de18965fd)" style="fill: #008000"/>
   </g>
   <g id="patch_46">
    <path d="M 209.420776 180.637091 
L 221.907489 180.637091 
L 221.907489 183.832615 
L 209.420776 183.832615 
z
" clip-path="url(#p9de18965fd)" style="fill: #008000"/>
   </g>
   <g id="patch_47">
    <path d="M 212.573986 180.637091 
L 225.060699 180.637091 
L 225.060699 185.524364 
L 212.573986 185.524364 
z
" clip-path="url(#p9de18965fd)" style="fill: #008000"/>
   </g>
   <g id="patch_48">
    <path d="M 215.727196 180.637091 
L 228.21391 180.637091 
L 228.21391 187.968 
L 215.727196 187.968 
z
" clip-path="url(#p9de18965fd)" style="fill: #008000"/>
   </g>
   <g id="patch_49">
    <path d="M 218.880407 180.637091 
L 231.36712 180.637091 
L 231.36712 191.808 
L 218.880407 191.808 
z
" clip-path="url(#p9de18965fd)" style="fill: #008000"/>
   </g>
   <g id="patch_50">
    <path d="M 222.033617 180.637091 
L 234.520331 180.637091 
L 234.520331 198.72 
L 222.033617 198.72 
z
" clip-path="url(#p9de18965fd)" style="fill: #008000"/>
   </g>
   <g id="patch_51">
    <path d="M 225.186828 180.637091 
L 237.673541 180.637091 
L 237.673541 214.848 
L 225.186828 214.848 
z
" clip-path="url(#p9de18965fd)" style="fill: #008000"/>
   </g>
   <g id="patch_52">
    <path d="M 228.340038 180.637091 
L 240.826751 180.637091 
L 240.826751 295.488 
L 228.340038 295.488 
z
" clip-path="url(#p9de18965fd)" style="fill: #008000"/>
   </g>
   <g id="patch_53">
    <path d="M 231.493249 180.637091 
L 243.979962 180.637091 
L 243.979962 53.568 
L 231.493249 53.568 
z
" clip-path="url(#p9de18965fd)" style="fill: #008000"/>
   </g>
   <g id="patch_54">
    <path d="M 234.646459 180.637091 
L 247.133172 180.637091 
L 247.133172 134.208 
L 234.646459 134.208 
z
" clip-path="url(#p9de18965fd)" style="fill: #008000"/>
   </g>
   <g id="patch_55">
    <path d="M 237.799669 180.637091 
L 250.286383 180.637091 
L 250.286383 150.336 
L 237.799669 150.336 
z
" clip-path="url(#p9de18965fd)" style="fill: #008000"/>
   </g>
   <g id="patch_56">
    <path d="M 240.95288 180.637091 
L 253.439593 180.637091 
L 253.439593 157.248 
L 240.95288 157.248 
z
" clip-path="url(#p9de18965fd)" style="fill: #008000"/>
   </g>
   <g id="patch_57">
    <path d="M 244.10609 180.637091 
L 256.592804 180.637091 
L 256.592804 161.088 
L 244.10609 161.088 
z
" clip-path="url(#p9de18965fd)" style="fill: #008000"/>
   </g>
   <g id="patch_58">
    <path d="M 247.259301 180.637091 
L 259.746014 180.637091 
L 259.746014 163.531636 
L 247.259301 163.531636 
z
" clip-path="url(#p9de18965fd)" style="fill: #008000"/>
   </g>
   <g id="patch_59">
    <path d="M 250.412511 180.637091 
L 262.899224 180.637091 
L 262.899224 165.223385 
L 250.412511 165.223385 
z
" clip-path="url(#p9de18965fd)" style="fill: #008000"/>
   </g>
   <g id="patch_60">
    <path d="M 253.565722 180.637091 
L 266.052435 180.637091 
L 266.052435 166.464 
L 253.565722 166.464 
z
" clip-path="url(#p9de18965fd)" style="fill: #008000"/>
   </g>
   <g id="patch_61">
    <path d="M 256.718932 180.637091 
L 269.205645 180.637091 
L 269.205645 167.412706 
L 256.718932 167.412706 
z
" clip-path="url(#p9de18965fd)" style="fill: #008000"/>
   </g>
   <g id="patch_62">
    <path d="M 259.872142 180.637091 
L 272.358856 180.637091 
L 272.358856 168.161684 
L 259.872142 168.161684 
z
" clip-path="url(#p9de18965fd)" style="fill: #008000"/>
   </g>
   <g id="patch_63">
    <path d="M 263.025353 180.637091 
L 275.512066 180.637091 
L 275.512066 168.768 
L 263.025353 168.768 
z
" clip-path="url(#p9de18965fd)" style="fill: #008000"/>
   </g>
   <g id="patch_64">
    <path d="M 266.178563 180.637091 
L 278.665277 180.637091 
L 278.665277 169.26887 
L 266.178563 169.26887 
z
" clip-path="url(#p9de18965fd)" style="fill: #008000"/>
   </g>
   <g id="patch_65">
    <path d="M 269.331774 180.637091 
L 281.818487 180.637091 
L 281.818487 169.6896 
L 269.331774 169.6896 
z
" clip-path="url(#p9de18965fd)" style="fill: #008000"/>
   </g>
   <g id="patch_66">
    <path d="M 272.484984 180.637091 
L 284.971697 180.637091 
L 284.971697 170.048 
L 272.484984 170.048 
z
" clip-path="url(#p9de18965fd)" style="fill: #008000"/>
   </g>
   <g id="patch_67">
    <path d="M 275.638195 180.637091 
L 288.124908 180.637091 
L 288.124908 170.356966 
L 275.638195 170.356966 
z
" clip-path="url(#p9de18965fd)" style="fill: #008000"/>
   </g>
   <g id="patch_68">
    <path d="M 278.791405 180.637091 
L 291.278118 180.637091 
L 291.278118 170.626065 
L 278.791405 170.626065 
z
" clip-path="url(#p9de18965fd)" style="fill: #008000"/>
   </g>
   <g id="patch_69">
    <path d="M 281.944615 180.637091 
L 294.431329 180.637091 
L 294.431329 170.862545 
L 281.944615 170.862545 
z
" clip-path="url(#p9de18965fd)" style="fill: #008000"/>
   </g>
   <g id="patch_70">
    <path d="M 285.097826 180.637091 
L 297.584539 180.637091 
L 297.584539 171.072 
L 285.097826 171.072 
z
" clip-path="url(#p9de18965fd)" style="fill: #008000"/>
   </g>
   <g id="patch_71">
    <path d="M 288.251036 180.637091 
L 300.73775 180.637091 
L 300.73775 171.258811 
L 288.251036 171.258811 
z
" clip-path="url(#p9de18965fd)" style="fill: #008000"/>
   </g>
   <g id="patch_72">
    <path d="M 291.404247 180.637091 
L 303.89096 180.637091 
L 303.89096 171.426462 
L 291.404247 171.426462 
z
" clip-path="url(#p9de18965fd)" style="fill: #008000"/>
   </g>
   <g id="patch_73">
    <path d="M 294.557457 180.637091 
L 307.04417 180.637091 
L 307.04417 171.577756 
L 294.557457 171.577756 
z
" clip-path="url(#p9de18965fd)" style="fill: #008000"/>
   </g>
   <g id="patch_74">
    <path d="M 297.710668 180.637091 
L 310.197381 180.637091 
L 310.197381 171.714977 
L 297.710668 171.714977 
z
" clip-path="url(#p9de18965fd)" style="fill: #008000"/>
   </g>
   <g id="patch_75">
    <path d="M 300.863878 180.637091 
L 313.350591 180.637091 
L 313.350591 171.84 
L 300.863878 171.84 
z
" clip-path="url(#p9de18965fd)" style="fill: #008000"/>
   </g>
   <g id="patch_76">
    <path d="M 304.017088 180.637091 
L 316.503802 180.637091 
L 316.503802 171.954383 
L 304.017088 171.954383 
z
" clip-path="url(#p9de18965fd)" style="fill: #008000"/>
   </g>
   <g id="patch_77">
    <path d="M 307.170299 180.637091 
L 319.657012 180.637091 
L 319.657012 172.059429 
L 307.170299 172.059429 
z
" clip-path="url(#p9de18965fd)" style="fill: #008000"/>
   </g>
   <g id="patch_78">
    <path d="M 310.323509 180.637091 
L 322.810223 180.637091 
L 322.810223 172.156235 
L 310.323509 172.156235 
z
" clip-path="url(#p9de18965fd)" style="fill: #008000"/>
   </g>
   <g id="patch_79">
    <path d="M 313.47672 180.637091 
L 325.963433 180.637091 
L 325.963433 172.245736 
L 313.47672 172.245736 
z
" clip-path="url(#p9de18965fd)" style="fill: #008000"/>
   </g>
   <g id="patch_80">
    <path d="M 316.62993 180.637091 
L 329.116643 180.637091 
L 329.116643 172.328727 
L 316.62993 172.328727 
z
" clip-path="url(#p9de18965fd)" style="fill: #008000"/>
   </g>
   <g id="patch_81">
    <path d="M 319.78314 180.637091 
L 332.269854 180.637091 
L 332.269854 172.405895 
L 319.78314 172.405895 
z
" clip-path="url(#p9de18965fd)" style="fill: #008000"/>
   </g>
   <g id="patch_82">
    <path d="M 322.936351 180.637091 
L 335.423064 180.637091 
L 335.423064 172.477831 
L 322.936351 172.477831 
z
" clip-path="url(#p9de18965fd)" style="fill: #008000"/>
   </g>
   <g id="patch_83">
    <path d="M 326.089561 180.637091 
L 338.576275 180.637091 
L 338.576275 172.545049 
L 326.089561 172.545049 
z
" clip-path="url(#p9de18965fd)" style="fill: #008000"/>
   </g>
   <g id="patch_84">
    <path d="M 329.242772 180.637091 
L 341.729485 180.637091 
L 341.729485 172.608 
L 329.242772 172.608 
z
" clip-path="url(#p9de18965fd)" style="fill: #008000"/>
   </g>
   <g id="patch_85">
    <path d="M 332.395982 180.637091 
L 344.882695 180.637091 
L 344.882695 172.667077 
L 332.395982 172.667077 
z
" clip-path="url(#p9de18965fd)" style="fill: #008000"/>
   </g>
   <g id="patch_86">
    <path d="M 335.549193 180.637091 
L 348.035906 180.637091 
L 348.035906 172.722627 
L 335.549193 172.722627 
z
" clip-path="url(#p9de18965fd)" style="fill: #008000"/>
   </g>
   <g id="patch_87">
    <path d="M 338.702403 180.637091 
L 351.189116 180.637091 
L 351.189116 172.774957 
L 338.702403 172.774957 
z
" clip-path="url(#p9de18965fd)" style="fill: #008000"/>
   </g>
   <g id="patch_88">
    <path d="M 341.855613 180.637091 
L 354.342327 180.637091 
L 354.342327 172.824338 
L 341.855613 172.824338 
z
" clip-path="url(#p9de18965fd)" style="fill: #008000"/>
   </g>
   <g id="patch_89">
    <path d="M 345.008824 180.637091 
L 357.495537 180.637091 
L 357.495537 172.871014 
L 345.008824 172.871014 
z
" clip-path="url(#p9de18965fd)" style="fill: #008000"/>
   </g>
   <g id="patch_90">
    <path d="M 348.162034 180.637091 
L 360.648748 180.637091 
L 360.648748 172.9152 
L 348.162034 172.9152 
z
" clip-path="url(#p9de18965fd)" style="fill: #008000"/>
   </g>
   <g id="patch_91">
    <path d="M 351.315245 180.637091 
L 363.801958 180.637091 
L 363.801958 172.957091 
L 351.315245 172.957091 
z
" clip-path="url(#p9de18965fd)" style="fill: #008000"/>
   </g>
   <g id="patch_92">
    <path d="M 354.468455 180.637091 
L 366.955168 180.637091 
L 366.955168 172.996861 
L 354.468455 172.996861 
z
" clip-path="url(#p9de18965fd)" style="fill: #008000"/>
   </g>
   <g id="patch_93">
    <path d="M 357.621666 180.637091 
L 370.108379 180.637091 
L 370.108379 173.034667 
L 357.621666 173.034667 
z
" clip-path="url(#p9de18965fd)" style="fill: #008000"/>
   </g>
   <g id="patch_94">
    <path d="M 360.774876 180.637091 
L 373.261589 180.637091 
L 373.261589 173.070651 
L 360.774876 173.070651 
z
" clip-path="url(#p9de18965fd)" style="fill: #008000"/>
   </g>
   <g id="patch_95">
    <path d="M 363.928086 180.637091 
L 376.4148 180.637091 
L 376.4148 173.104941 
L 363.928086 173.104941 
z
" clip-path="url(#p9de18965fd)" style="fill: #008000"/>
   </g>
   <g id="patch_96">
    <path d="M 367.081297 180.637091 
L 379.56801 180.637091 
L 379.56801 173.137655 
L 367.081297 173.137655 
z
" clip-path="url(#p9de18965fd)" style="fill: #008000"/>
   </g>
   <g id="patch_97">
    <path d="M 370.234507 180.637091 
L 382.721221 180.637091 
L 382.721221 173.168899 
L 370.234507 173.168899 
z
" clip-path="url(#p9de18965fd)" style="fill: #008000"/>
   </g>
   <g id="patch_98">
    <path d="M 373.387718 180.637091 
L 385.874431 180.637091 
L 385.874431 173.198769 
L 373.387718 173.198769 
z
" clip-path="url(#p9de18965fd)" style="fill: #008000"/>
   </g>
   <g id="patch_99">
    <path d="M 376.540928 180.637091 
L 389.027641 180.637091 
L 389.027641 173.227355 
L 376.540928 173.227355 
z
" clip-path="url(#p9de18965fd)" style="fill: #008000"/>
   </g>
   <g id="patch_100">
    <path d="M 379.694139 180.637091 
L 392.180852 180.637091 
L 392.180852 173.254737 
L 379.694139 173.254737 
z
" clip-path="url(#p9de18965fd)" style="fill: #008000"/>
   </g>
   <g id="patch_101">
    <path d="M 382.847349 180.637091 
L 395.334062 180.637091 
L 395.334062 173.28099 
L 382.847349 173.28099 
z
" clip-path="url(#p9de18965fd)" style="fill: #008000"/>
   </g>
   <g id="patch_102">
    <path d="M 386.000559 180.637091 
L 398.487273 180.637091 
L 398.487273 173.306182 
L 386.000559 173.306182 
z
" clip-path="url(#p9de18965fd)" style="fill: #008000"/>
   </g>
   <g id="matplotlib.axis_1">
    <g id="xtick_1">
     <g id="line2d_1">
      <path d="M 80.076084 307.584 
L 80.076084 41.472 
" clip-path="url(#p9de18965fd)" style="fill: none; stroke: #b0b0b0; stroke-width: 0.8; stroke-linecap: square"/>
     </g>
     <g id="line2d_2">
      <defs>
       <path id="mbdaf0a5ff8" d="M 0 0 
L 0 3.5 
" style="stroke: #000000; stroke-width: 0.8"/>
      </defs>
      <g>
       <use xlink:href="#mbdaf0a5ff8" x="80.076084" y="307.584" style="stroke: #000000; stroke-width: 0.8"/>
      </g>
     </g>
     <g id="text_1">
      <!-- −10 -->
      <g transform="translate(69.52374 322.182437) scale(0.1 -0.1)">
       <defs>
        <path id="DejaVuSans-2212" d="M 678 2272 
L 4684 2272 
L 4684 1741 
L 678 1741 
L 678 2272 
z
" transform="scale(0.015625)"/>
        <path id="DejaVuSans-31" d="M 794 531 
L 1825 531 
L 1825 4091 
L 703 3866 
L 703 4441 
L 1819 4666 
L 2450 4666 
L 2450 531 
L 3481 531 
L 3481 0 
L 794 0 
L 794 531 
z
" transform="scale(0.015625)"/>
        <path id="DejaVuSans-30" d="M 2034 4250 
Q 1547 4250 1301 3770 
Q 1056 3291 1056 2328 
Q 1056 1369 1301 889 
Q 1547 409 2034 409 
Q 2525 409 2770 889 
Q 3016 1369 3016 2328 
Q 3016 3291 2770 3770 
Q 2525 4250 2034 4250 
z
M 2034 4750 
Q 2819 4750 3233 4129 
Q 3647 3509 3647 2328 
Q 3647 1150 3233 529 
Q 2819 -91 2034 -91 
Q 1250 -91 836 529 
Q 422 1150 422 2328 
Q 422 3509 836 4129 
Q 1250 4750 2034 4750 
z
" transform="scale(0.015625)"/>
       </defs>
       <use xlink:href="#DejaVuSans-2212"/>
       <use xlink:href="#DejaVuSans-31" x="83.789062"/>
       <use xlink:href="#DejaVuSans-30" x="147.412109"/>
      </g>
     </g>
    </g>
    <g id="xtick_2">
     <g id="line2d_3">
      <path d="M 158.118042 307.584 
L 158.118042 41.472 
" clip-path="url(#p9de18965fd)" style="fill: none; stroke: #b0b0b0; stroke-width: 0.8; stroke-linecap: square"/>
     </g>
     <g id="line2d_4">
      <g>
       <use xlink:href="#mbdaf0a5ff8" x="158.118042" y="307.584" style="stroke: #000000; stroke-width: 0.8"/>
      </g>
     </g>
     <g id="text_2">
      <!-- −5 -->
      <g transform="translate(150.746948 322.182437) scale(0.1 -0.1)">
       <defs>
        <path id="DejaVuSans-35" d="M 691 4666 
L 3169 4666 
L 3169 4134 
L 1269 4134 
L 1269 2991 
Q 1406 3038 1543 3061 
Q 1681 3084 1819 3084 
Q 2600 3084 3056 2656 
Q 3513 2228 3513 1497 
Q 3513 744 3044 326 
Q 2575 -91 1722 -91 
Q 1428 -91 1123 -41 
Q 819 9 494 109 
L 494 744 
Q 775 591 1075 516 
Q 1375 441 1709 441 
Q 2250 441 2565 725 
Q 2881 1009 2881 1497 
Q 2881 1984 2565 2268 
Q 2250 2553 1709 2553 
Q 1456 2553 1204 2497 
Q 953 2441 691 2322 
L 691 4666 
z
" transform="scale(0.015625)"/>
       </defs>
       <use xlink:href="#DejaVuSans-2212"/>
       <use xlink:href="#DejaVuSans-35" x="83.789062"/>
      </g>
     </g>
    </g>
    <g id="xtick_3">
     <g id="line2d_5">
      <path d="M 236.16 307.584 
L 236.16 41.472 
" clip-path="url(#p9de18965fd)" style="fill: none; stroke: #b0b0b0; stroke-width: 0.8; stroke-linecap: square"/>
     </g>
     <g id="line2d_6">
      <g>
       <use xlink:href="#mbdaf0a5ff8" x="236.16" y="307.584" style="stroke: #000000; stroke-width: 0.8"/>
      </g>
     </g>
     <g id="text_3">
      <!-- 0 -->
      <g transform="translate(232.97875 322.182437) scale(0.1 -0.1)">
       <use xlink:href="#DejaVuSans-30"/>
      </g>
     </g>
    </g>
    <g id="xtick_4">
     <g id="line2d_7">
      <path d="M 314.201958 307.584 
L 314.201958 41.472 
" clip-path="url(#p9de18965fd)" style="fill: none; stroke: #b0b0b0; stroke-width: 0.8; stroke-linecap: square"/>
     </g>
     <g id="line2d_8">
      <g>
       <use xlink:href="#mbdaf0a5ff8" x="314.201958" y="307.584" style="stroke: #000000; stroke-width: 0.8"/>
      </g>
     </g>
     <g id="text_4">
      <!-- 5 -->
      <g transform="translate(311.020708 322.182437) scale(0.1 -0.1)">
       <use xlink:href="#DejaVuSans-35"/>
      </g>
     </g>
    </g>
    <g id="xtick_5">
     <g id="line2d_9">
      <path d="M 392.243916 307.584 
L 392.243916 41.472 
" clip-path="url(#p9de18965fd)" style="fill: none; stroke: #b0b0b0; stroke-width: 0.8; stroke-linecap: square"/>
     </g>
     <g id="line2d_10">
      <g>
       <use xlink:href="#mbdaf0a5ff8" x="392.243916" y="307.584" style="stroke: #000000; stroke-width: 0.8"/>
      </g>
     </g>
     <g id="text_5">
      <!-- 10 -->
      <g transform="translate(385.881416 322.182437) scale(0.1 -0.1)">
       <use xlink:href="#DejaVuSans-31"/>
       <use xlink:href="#DejaVuSans-30" x="63.623047"/>
      </g>
     </g>
    </g>
    <g id="text_6">
     <!-- Ось х -->
     <g transform="translate(221.979531 335.860562) scale(0.1 -0.1)">
      <defs>
       <path id="DejaVuSans-41e" d="M 2522 4238 
Q 1834 4238 1429 3725 
Q 1025 3213 1025 2328 
Q 1025 1447 1429 934 
Q 1834 422 2522 422 
Q 3209 422 3611 934 
Q 4013 1447 4013 2328 
Q 4013 3213 3611 3725 
Q 3209 4238 2522 4238 
z
M 2522 4750 
Q 3503 4750 4090 4092 
Q 4678 3434 4678 2328 
Q 4678 1225 4090 567 
Q 3503 -91 2522 -91 
Q 1538 -91 948 565 
Q 359 1222 359 2328 
Q 359 3434 948 4092 
Q 1538 4750 2522 4750 
z
" transform="scale(0.015625)"/>
       <path id="DejaVuSans-441" d="M 3122 3366 
L 3122 2828 
Q 2878 2963 2633 3030 
Q 2388 3097 2138 3097 
Q 1578 3097 1268 2742 
Q 959 2388 959 1747 
Q 959 1106 1268 751 
Q 1578 397 2138 397 
Q 2388 397 2633 464 
Q 2878 531 3122 666 
L 3122 134 
Q 2881 22 2623 -34 
Q 2366 -91 2075 -91 
Q 1284 -91 818 406 
Q 353 903 353 1747 
Q 353 2603 823 3093 
Q 1294 3584 2113 3584 
Q 2378 3584 2631 3529 
Q 2884 3475 3122 3366 
z
" transform="scale(0.015625)"/>
       <path id="DejaVuSans-44c" d="M 2781 1038 
Q 2781 1319 2576 1466 
Q 2372 1613 1978 1613 
L 1159 1613 
L 1159 459 
L 1978 459 
Q 2372 459 2576 607 
Q 2781 756 2781 1038 
z
M 581 3500 
L 1159 3500 
L 1159 2072 
L 2003 2072 
Q 2672 2072 3033 1817 
Q 3394 1563 3394 1038 
Q 3394 513 3033 256 
Q 2672 0 2003 0 
L 581 0 
L 581 3500 
z
" transform="scale(0.015625)"/>
       <path id="DejaVuSans-20" transform="scale(0.015625)"/>
       <path id="DejaVuSans-445" d="M 3513 3500 
L 2247 1797 
L 3578 0 
L 2900 0 
L 1881 1375 
L 863 0 
L 184 0 
L 1544 1831 
L 300 3500 
L 978 3500 
L 1906 2253 
L 2834 3500 
L 3513 3500 
z
" transform="scale(0.015625)"/>
      </defs>
      <use xlink:href="#DejaVuSans-41e"/>
      <use xlink:href="#DejaVuSans-441" x="78.710938"/>
      <use xlink:href="#DejaVuSans-44c" x="133.691406"/>
      <use xlink:href="#DejaVuSans-20" x="192.626953"/>
      <use xlink:href="#DejaVuSans-445" x="224.414062"/>
     </g>
    </g>
   </g>
   <g id="matplotlib.axis_2">
    <g id="ytick_1">
     <g id="line2d_11">
      <path d="M 57.6 302.818909 
L 414.72 302.818909 
" clip-path="url(#p9de18965fd)" style="fill: none; stroke: #b0b0b0; stroke-width: 0.8; stroke-linecap: square"/>
     </g>
     <g id="line2d_12">
      <defs>
       <path id="md3cfd3e1e1" d="M 0 0 
L -3.5 0 
" style="stroke: #000000; stroke-width: 0.8"/>
      </defs>
      <g>
       <use xlink:href="#md3cfd3e1e1" x="57.6" y="302.818909" style="stroke: #000000; stroke-width: 0.8"/>
      </g>
     </g>
     <g id="text_7">
      <!-- −20 -->
      <g transform="translate(29.495313 306.618128) scale(0.1 -0.1)">
       <defs>
        <path id="DejaVuSans-32" d="M 1228 531 
L 3431 531 
L 3431 0 
L 469 0 
L 469 531 
Q 828 903 1448 1529 
Q 2069 2156 2228 2338 
Q 2531 2678 2651 2914 
Q 2772 3150 2772 3378 
Q 2772 3750 2511 3984 
Q 2250 4219 1831 4219 
Q 1534 4219 1204 4116 
Q 875 4013 500 3803 
L 500 4441 
Q 881 4594 1212 4672 
Q 1544 4750 1819 4750 
Q 2544 4750 2975 4387 
Q 3406 4025 3406 3419 
Q 3406 3131 3298 2873 
Q 3191 2616 2906 2266 
Q 2828 2175 2409 1742 
Q 1991 1309 1228 531 
z
" transform="scale(0.015625)"/>
       </defs>
       <use xlink:href="#DejaVuSans-2212"/>
       <use xlink:href="#DejaVuSans-32" x="83.789062"/>
       <use xlink:href="#DejaVuSans-30" x="147.412109"/>
      </g>
     </g>
    </g>
    <g id="ytick_2">
     <g id="line2d_13">
      <path d="M 57.6 272.273455 
L 414.72 272.273455 
" clip-path="url(#p9de18965fd)" style="fill: none; stroke: #b0b0b0; stroke-width: 0.8; stroke-linecap: square"/>
     </g>
     <g id="line2d_14">
      <g>
       <use xlink:href="#md3cfd3e1e1" x="57.6" y="272.273455" style="stroke: #000000; stroke-width: 0.8"/>
      </g>
     </g>
     <g id="text_8">
      <!-- −15 -->
      <g transform="translate(29.495313 276.072673) scale(0.1 -0.1)">
       <use xlink:href="#DejaVuSans-2212"/>
       <use xlink:href="#DejaVuSans-31" x="83.789062"/>
       <use xlink:href="#DejaVuSans-35" x="147.412109"/>
      </g>
     </g>
    </g>
    <g id="ytick_3">
     <g id="line2d_15">
      <path d="M 57.6 241.728 
L 414.72 241.728 
" clip-path="url(#p9de18965fd)" style="fill: none; stroke: #b0b0b0; stroke-width: 0.8; stroke-linecap: square"/>
     </g>
     <g id="line2d_16">
      <g>
       <use xlink:href="#md3cfd3e1e1" x="57.6" y="241.728" style="stroke: #000000; stroke-width: 0.8"/>
      </g>
     </g>
     <g id="text_9">
      <!-- −10 -->
      <g transform="translate(29.495313 245.527219) scale(0.1 -0.1)">
       <use xlink:href="#DejaVuSans-2212"/>
       <use xlink:href="#DejaVuSans-31" x="83.789062"/>
       <use xlink:href="#DejaVuSans-30" x="147.412109"/>
      </g>
     </g>
    </g>
    <g id="ytick_4">
     <g id="line2d_17">
      <path d="M 57.6 211.182545 
L 414.72 211.182545 
" clip-path="url(#p9de18965fd)" style="fill: none; stroke: #b0b0b0; stroke-width: 0.8; stroke-linecap: square"/>
     </g>
     <g id="line2d_18">
      <g>
       <use xlink:href="#md3cfd3e1e1" x="57.6" y="211.182545" style="stroke: #000000; stroke-width: 0.8"/>
      </g>
     </g>
     <g id="text_10">
      <!-- −5 -->
      <g transform="translate(35.857813 214.981764) scale(0.1 -0.1)">
       <use xlink:href="#DejaVuSans-2212"/>
       <use xlink:href="#DejaVuSans-35" x="83.789062"/>
      </g>
     </g>
    </g>
    <g id="ytick_5">
     <g id="line2d_19">
      <path d="M 57.6 180.637091 
L 414.72 180.637091 
" clip-path="url(#p9de18965fd)" style="fill: none; stroke: #b0b0b0; stroke-width: 0.8; stroke-linecap: square"/>
     </g>
     <g id="line2d_20">
      <g>
       <use xlink:href="#md3cfd3e1e1" x="57.6" y="180.637091" style="stroke: #000000; stroke-width: 0.8"/>
      </g>
     </g>
     <g id="text_11">
      <!-- 0 -->
      <g transform="translate(44.2375 184.43631) scale(0.1 -0.1)">
       <use xlink:href="#DejaVuSans-30"/>
      </g>
     </g>
    </g>
    <g id="ytick_6">
     <g id="line2d_21">
      <path d="M 57.6 150.091636 
L 414.72 150.091636 
" clip-path="url(#p9de18965fd)" style="fill: none; stroke: #b0b0b0; stroke-width: 0.8; stroke-linecap: square"/>
     </g>
     <g id="line2d_22">
      <g>
       <use xlink:href="#md3cfd3e1e1" x="57.6" y="150.091636" style="stroke: #000000; stroke-width: 0.8"/>
      </g>
     </g>
     <g id="text_12">
      <!-- 5 -->
      <g transform="translate(44.2375 153.890855) scale(0.1 -0.1)">
       <use xlink:href="#DejaVuSans-35"/>
      </g>
     </g>
    </g>
    <g id="ytick_7">
     <g id="line2d_23">
      <path d="M 57.6 119.546182 
L 414.72 119.546182 
" clip-path="url(#p9de18965fd)" style="fill: none; stroke: #b0b0b0; stroke-width: 0.8; stroke-linecap: square"/>
     </g>
     <g id="line2d_24">
      <g>
       <use xlink:href="#md3cfd3e1e1" x="57.6" y="119.546182" style="stroke: #000000; stroke-width: 0.8"/>
      </g>
     </g>
     <g id="text_13">
      <!-- 10 -->
      <g transform="translate(37.875 123.345401) scale(0.1 -0.1)">
       <use xlink:href="#DejaVuSans-31"/>
       <use xlink:href="#DejaVuSans-30" x="63.623047"/>
      </g>
     </g>
    </g>
    <g id="ytick_8">
     <g id="line2d_25">
      <path d="M 57.6 89.000727 
L 414.72 89.000727 
" clip-path="url(#p9de18965fd)" style="fill: none; stroke: #b0b0b0; stroke-width: 0.8; stroke-linecap: square"/>
     </g>
     <g id="line2d_26">
      <g>
       <use xlink:href="#md3cfd3e1e1" x="57.6" y="89.000727" style="stroke: #000000; stroke-width: 0.8"/>
      </g>
     </g>
     <g id="text_14">
      <!-- 15 -->
      <g transform="translate(37.875 92.799946) scale(0.1 -0.1)">
       <use xlink:href="#DejaVuSans-31"/>
       <use xlink:href="#DejaVuSans-35" x="63.623047"/>
      </g>
     </g>
    </g>
    <g id="ytick_9">
     <g id="line2d_27">
      <path d="M 57.6 58.455273 
L 414.72 58.455273 
" clip-path="url(#p9de18965fd)" style="fill: none; stroke: #b0b0b0; stroke-width: 0.8; stroke-linecap: square"/>
     </g>
     <g id="line2d_28">
      <g>
       <use xlink:href="#md3cfd3e1e1" x="57.6" y="58.455273" style="stroke: #000000; stroke-width: 0.8"/>
      </g>
     </g>
     <g id="text_15">
      <!-- 20 -->
      <g transform="translate(37.875 62.254491) scale(0.1 -0.1)">
       <use xlink:href="#DejaVuSans-32"/>
       <use xlink:href="#DejaVuSans-30" x="63.623047"/>
      </g>
     </g>
    </g>
    <g id="text_16">
     <!-- Ось у -->
     <g transform="translate(23.415625 188.708469) rotate(-90) scale(0.1 -0.1)">
      <defs>
       <path id="DejaVuSans-443" d="M 2059 -325 
Q 1816 -950 1584 -1140 
Q 1353 -1331 966 -1331 
L 506 -1331 
L 506 -850 
L 844 -850 
Q 1081 -850 1212 -737 
Q 1344 -625 1503 -206 
L 1606 56 
L 191 3500 
L 800 3500 
L 1894 763 
L 2988 3500 
L 3597 3500 
L 2059 -325 
z
" transform="scale(0.015625)"/>
      </defs>
      <use xlink:href="#DejaVuSans-41e"/>
      <use xlink:href="#DejaVuSans-441" x="78.710938"/>
      <use xlink:href="#DejaVuSans-44c" x="133.691406"/>
      <use xlink:href="#DejaVuSans-20" x="192.626953"/>
      <use xlink:href="#DejaVuSans-443" x="224.414062"/>
     </g>
    </g>
   </g>
   <g id="patch_103">
    <path d="M 57.6 307.584 
L 57.6 41.472 
" style="fill: none; stroke: #000000; stroke-width: 0.8; stroke-linejoin: miter; stroke-linecap: square"/>
   </g>
   <g id="patch_104">
    <path d="M 414.72 307.584 
L 414.72 41.472 
" style="fill: none; stroke: #000000; stroke-width: 0.8; stroke-linejoin: miter; stroke-linecap: square"/>
   </g>
   <g id="patch_105">
    <path d="M 57.6 307.584 
L 414.72 307.584 
" style="fill: none; stroke: #000000; stroke-width: 0.8; stroke-linejoin: miter; stroke-linecap: square"/>
   </g>
   <g id="patch_106">
    <path d="M 57.6 41.472 
L 414.72 41.472 
" style="fill: none; stroke: #000000; stroke-width: 0.8; stroke-linejoin: miter; stroke-linecap: square"/>
   </g>
   <g id="text_17">
    <!-- График функции f(x) -->
    <g transform="translate(170.0925 35.472) scale(0.12 -0.12)">
     <defs>
      <path id="DejaVuSans-413" d="M 628 0 
L 628 4666 
L 3531 4666 
L 3531 4134 
L 1259 4134 
L 1259 0 
L 628 0 
z
" transform="scale(0.015625)"/>
      <path id="DejaVuSans-440" d="M 1159 525 
L 1159 -1331 
L 581 -1331 
L 581 3500 
L 1159 3500 
L 1159 2969 
Q 1341 3281 1617 3432 
Q 1894 3584 2278 3584 
Q 2916 3584 3314 3078 
Q 3713 2572 3713 1747 
Q 3713 922 3314 415 
Q 2916 -91 2278 -91 
Q 1894 -91 1617 61 
Q 1341 213 1159 525 
z
M 3116 1747 
Q 3116 2381 2855 2742 
Q 2594 3103 2138 3103 
Q 1681 3103 1420 2742 
Q 1159 2381 1159 1747 
Q 1159 1113 1420 752 
Q 1681 391 2138 391 
Q 2594 391 2855 752 
Q 3116 1113 3116 1747 
z
" transform="scale(0.015625)"/>
      <path id="DejaVuSans-430" d="M 2194 1759 
Q 1497 1759 1228 1600 
Q 959 1441 959 1056 
Q 959 750 1161 570 
Q 1363 391 1709 391 
Q 2188 391 2477 730 
Q 2766 1069 2766 1631 
L 2766 1759 
L 2194 1759 
z
M 3341 1997 
L 3341 0 
L 2766 0 
L 2766 531 
Q 2569 213 2275 61 
Q 1981 -91 1556 -91 
Q 1019 -91 701 211 
Q 384 513 384 1019 
Q 384 1609 779 1909 
Q 1175 2209 1959 2209 
L 2766 2209 
L 2766 2266 
Q 2766 2663 2505 2880 
Q 2244 3097 1772 3097 
Q 1472 3097 1187 3025 
Q 903 2953 641 2809 
L 641 3341 
Q 956 3463 1253 3523 
Q 1550 3584 1831 3584 
Q 2591 3584 2966 3190 
Q 3341 2797 3341 1997 
z
" transform="scale(0.015625)"/>
      <path id="DejaVuSans-444" d="M 947 1747 
Q 947 1013 1173 702 
Q 1400 391 1784 391 
Q 2091 391 2447 916 
L 2447 2578 
Q 2091 3103 1784 3103 
Q 1400 3103 1173 2792 
Q 947 2481 947 1747 
z
M 2447 -1331 
L 2447 447 
Q 2269 153 2064 31 
Q 1859 -91 1600 -91 
Q 1078 -91 714 392 
Q 350 875 350 1734 
Q 350 2594 714 3089 
Q 1078 3584 1600 3584 
Q 1859 3584 2064 3465 
Q 2269 3347 2447 3053 
L 2447 4666 
L 3025 4666 
L 3025 3053 
Q 3203 3347 3408 3465 
Q 3613 3584 3872 3584 
Q 4394 3584 4758 3089 
Q 5122 2594 5122 1734 
Q 5122 875 4758 392 
Q 4394 -91 3872 -91 
Q 3613 -91 3408 31 
Q 3203 153 3025 447 
L 3025 -1331 
L 2447 -1331 
z
M 4525 1747 
Q 4525 2481 4298 2792 
Q 4072 3103 3688 3103 
Q 3381 3103 3025 2578 
L 3025 916 
Q 3381 391 3688 391 
Q 4072 391 4298 702 
Q 4525 1013 4525 1747 
z
" transform="scale(0.015625)"/>
      <path id="DejaVuSans-438" d="M 3578 3500 
L 3578 0 
L 3006 0 
L 3006 2809 
L 1319 0 
L 581 0 
L 581 3500 
L 1153 3500 
L 1153 697 
L 2838 3500 
L 3578 3500 
z
" transform="scale(0.015625)"/>
      <path id="DejaVuSans-43a" d="M 581 3500 
L 1153 3500 
L 1153 1856 
L 2775 3500 
L 3481 3500 
L 2144 2147 
L 3653 0 
L 3009 0 
L 1769 1766 
L 1153 1141 
L 1153 0 
L 581 0 
L 581 3500 
z
" transform="scale(0.015625)"/>
      <path id="DejaVuSans-43d" d="M 581 3500 
L 1159 3500 
L 1159 2072 
L 3025 2072 
L 3025 3500 
L 3603 3500 
L 3603 0 
L 3025 0 
L 3025 1613 
L 1159 1613 
L 1159 0 
L 581 0 
L 581 3500 
z
" transform="scale(0.015625)"/>
      <path id="DejaVuSans-446" d="M 3603 0 
L 581 0 
L 581 3500 
L 1159 3500 
L 1159 459 
L 3025 459 
L 3025 3500 
L 3603 3500 
L 3603 459 
L 4063 459 
L 4063 -884 
L 3603 -884 
L 3603 0 
z
" transform="scale(0.015625)"/>
      <path id="DejaVuSans-66" d="M 2375 4863 
L 2375 4384 
L 1825 4384 
Q 1516 4384 1395 4259 
Q 1275 4134 1275 3809 
L 1275 3500 
L 2222 3500 
L 2222 3053 
L 1275 3053 
L 1275 0 
L 697 0 
L 697 3053 
L 147 3053 
L 147 3500 
L 697 3500 
L 697 3744 
Q 697 4328 969 4595 
Q 1241 4863 1831 4863 
L 2375 4863 
z
" transform="scale(0.015625)"/>
      <path id="DejaVuSans-28" d="M 1984 4856 
Q 1566 4138 1362 3434 
Q 1159 2731 1159 2009 
Q 1159 1288 1364 580 
Q 1569 -128 1984 -844 
L 1484 -844 
Q 1016 -109 783 600 
Q 550 1309 550 2009 
Q 550 2706 781 3412 
Q 1013 4119 1484 4856 
L 1984 4856 
z
" transform="scale(0.015625)"/>
      <path id="DejaVuSans-78" d="M 3513 3500 
L 2247 1797 
L 3578 0 
L 2900 0 
L 1881 1375 
L 863 0 
L 184 0 
L 1544 1831 
L 300 3500 
L 978 3500 
L 1906 2253 
L 2834 3500 
L 3513 3500 
z
" transform="scale(0.015625)"/>
      <path id="DejaVuSans-29" d="M 513 4856 
L 1013 4856 
Q 1481 4119 1714 3412 
Q 1947 2706 1947 2009 
Q 1947 1309 1714 600 
Q 1481 -109 1013 -844 
L 513 -844 
Q 928 -128 1133 580 
Q 1338 1288 1338 2009 
Q 1338 2731 1133 3434 
Q 928 4138 513 4856 
z
" transform="scale(0.015625)"/>
     </defs>
     <use xlink:href="#DejaVuSans-413"/>
     <use xlink:href="#DejaVuSans-440" x="60.986328"/>
     <use xlink:href="#DejaVuSans-430" x="124.462891"/>
     <use xlink:href="#DejaVuSans-444" x="185.742188"/>
     <use xlink:href="#DejaVuSans-438" x="271.240234"/>
     <use xlink:href="#DejaVuSans-43a" x="336.230469"/>
     <use xlink:href="#DejaVuSans-20" x="396.630859"/>
     <use xlink:href="#DejaVuSans-444" x="428.417969"/>
     <use xlink:href="#DejaVuSans-443" x="513.916016"/>
     <use xlink:href="#DejaVuSans-43d" x="573.095703"/>
     <use xlink:href="#DejaVuSans-43a" x="638.476562"/>
     <use xlink:href="#DejaVuSans-446" x="698.876953"/>
     <use xlink:href="#DejaVuSans-438" x="766.943359"/>
     <use xlink:href="#DejaVuSans-438" x="831.933594"/>
     <use xlink:href="#DejaVuSans-20" x="896.923828"/>
     <use xlink:href="#DejaVuSans-66" x="928.710938"/>
     <use xlink:href="#DejaVuSans-28" x="963.916016"/>
     <use xlink:href="#DejaVuSans-78" x="1002.929688"/>
     <use xlink:href="#DejaVuSans-29" x="1062.109375"/>
    </g>
   </g>
   <g id="legend_1">
    <g id="patch_107">
     <path d="M 327.402813 64.150125 
L 407.72 64.150125 
Q 409.72 64.150125 409.72 62.150125 
L 409.72 48.472 
Q 409.72 46.472 407.72 46.472 
L 327.402813 46.472 
Q 325.402813 46.472 325.402813 48.472 
L 325.402813 62.150125 
Q 325.402813 64.150125 327.402813 64.150125 
z
" style="fill: #ffffff; opacity: 0.8; stroke: #cccccc; stroke-linejoin: miter"/>
    </g>
    <g id="patch_108">
     <path d="M 329.402813 58.070438 
L 349.402813 58.070438 
L 349.402813 51.070438 
L 329.402813 51.070438 
z
" style="fill: #008000"/>
    </g>
    <g id="text_18">
     <!-- a=2, b=1 -->
     <g transform="translate(357.402813 58.070438) scale(0.1 -0.1)">
      <defs>
       <path id="DejaVuSans-61" d="M 2194 1759 
Q 1497 1759 1228 1600 
Q 959 1441 959 1056 
Q 959 750 1161 570 
Q 1363 391 1709 391 
Q 2188 391 2477 730 
Q 2766 1069 2766 1631 
L 2766 1759 
L 2194 1759 
z
M 3341 1997 
L 3341 0 
L 2766 0 
L 2766 531 
Q 2569 213 2275 61 
Q 1981 -91 1556 -91 
Q 1019 -91 701 211 
Q 384 513 384 1019 
Q 384 1609 779 1909 
Q 1175 2209 1959 2209 
L 2766 2209 
L 2766 2266 
Q 2766 2663 2505 2880 
Q 2244 3097 1772 3097 
Q 1472 3097 1187 3025 
Q 903 2953 641 2809 
L 641 3341 
Q 956 3463 1253 3523 
Q 1550 3584 1831 3584 
Q 2591 3584 2966 3190 
Q 3341 2797 3341 1997 
z
" transform="scale(0.015625)"/>
       <path id="DejaVuSans-3d" d="M 678 2906 
L 4684 2906 
L 4684 2381 
L 678 2381 
L 678 2906 
z
M 678 1631 
L 4684 1631 
L 4684 1100 
L 678 1100 
L 678 1631 
z
" transform="scale(0.015625)"/>
       <path id="DejaVuSans-2c" d="M 750 794 
L 1409 794 
L 1409 256 
L 897 -744 
L 494 -744 
L 750 256 
L 750 794 
z
" transform="scale(0.015625)"/>
       <path id="DejaVuSans-62" d="M 3116 1747 
Q 3116 2381 2855 2742 
Q 2594 3103 2138 3103 
Q 1681 3103 1420 2742 
Q 1159 2381 1159 1747 
Q 1159 1113 1420 752 
Q 1681 391 2138 391 
Q 2594 391 2855 752 
Q 3116 1113 3116 1747 
z
M 1159 2969 
Q 1341 3281 1617 3432 
Q 1894 3584 2278 3584 
Q 2916 3584 3314 3078 
Q 3713 2572 3713 1747 
Q 3713 922 3314 415 
Q 2916 -91 2278 -91 
Q 1894 -91 1617 61 
Q 1341 213 1159 525 
L 1159 0 
L 581 0 
L 581 4863 
L 1159 4863 
L 1159 2969 
z
" transform="scale(0.015625)"/>
      </defs>
      <use xlink:href="#DejaVuSans-61"/>
      <use xlink:href="#DejaVuSans-3d" x="61.279297"/>
      <use xlink:href="#DejaVuSans-32" x="145.068359"/>
      <use xlink:href="#DejaVuSans-2c" x="208.691406"/>
      <use xlink:href="#DejaVuSans-20" x="240.478516"/>
      <use xlink:href="#DejaVuSans-62" x="272.265625"/>
      <use xlink:href="#DejaVuSans-3d" x="335.742188"/>
      <use xlink:href="#DejaVuSans-31" x="419.53125"/>
     </g>
    </g>
   </g>
  </g>
 </g>
 <defs>
  <clipPath id="p9de18965fd">
   <rect x="57.6" y="41.472" width="357.12" height="266.112"/>
  </clipPath>
 </defs>
</svg>
