<?xml version="1.0" encoding="utf-8" standalone="no"?>
<!DOCTYPE svg PUBLIC "-//W3C//DTD SVG 1.1//EN"
  "http://www.w3.org/Graphics/SVG/1.1/DTD/svg11.dtd">
<svg xmlns:xlink="http://www.w3.org/1999/xlink" width="864pt" height="504pt" viewBox="0 0 864 504" xmlns="http://www.w3.org/2000/svg" version="1.1">
 <metadata>
  <rdf:RDF xmlns:dc="http://purl.org/dc/elements/1.1/" xmlns:cc="http://creativecommons.org/ns#" xmlns:rdf="http://www.w3.org/1999/02/22-rdf-syntax-ns#">
   <cc:Work>
    <dc:type rdf:resource="http://purl.org/dc/dcmitype/StillImage"/>
    <dc:date>2023-11-11T15:10:36.587202</dc:date>
    <dc:format>image/svg+xml</dc:format>
    <dc:creator>
     <cc:Agent>
      <dc:title>Matplotlib v3.8.1, https://matplotlib.org/</dc:title>
     </cc:Agent>
    </dc:creator>
   </cc:Work>
  </rdf:RDF>
 </metadata>
 <defs>
  <style type="text/css">*{stroke-linejoin: round; stroke-linecap: butt}</style>
 </defs>
 <g id="figure_1">
  <g id="patch_1">
   <path d="M 0 504 
L 864 504 
L 864 0 
L 0 0 
z
" style="fill: #ffffff"/>
  </g>
  <g id="axes_1">
   <g id="patch_2">
    <path d="M 52.582813 462.84375 
L 850.01875 462.84375 
L 850.01875 25.918125 
L 52.582813 25.918125 
z
" style="fill: #ffffff"/>
   </g>
   <g id="matplotlib.axis_1">
    <g id="xtick_1">
     <g id="line2d_1">
      <path d="M 52.582812 462.84375 
L 52.582812 25.918125 
" clip-path="url(#p82228b22c0)" style="fill: none; stroke: #b0b0b0; stroke-width: 0.8; stroke-linecap: square"/>
     </g>
     <g id="line2d_2">
      <defs>
       <path id="meb30fcddae" d="M 0 0 
L 0 3.5 
" style="stroke: #000000; stroke-width: 0.8"/>
      </defs>
      <g>
       <use xlink:href="#meb30fcddae" x="52.582812" y="462.84375" style="stroke: #000000; stroke-width: 0.8"/>
      </g>
     </g>
     <g id="text_1">
      <!-- −4 -->
      <g transform="translate(45.211719 477.442188) scale(0.1 -0.1)">
       <defs>
        <path id="DejaVuSans-2212" d="M 678 2272 
L 4684 2272 
L 4684 1741 
L 678 1741 
L 678 2272 
z
" transform="scale(0.015625)"/>
        <path id="DejaVuSans-34" d="M 2419 4116 
L 825 1625 
L 2419 1625 
L 2419 4116 
z
M 2253 4666 
L 3047 4666 
L 3047 1625 
L 3713 1625 
L 3713 1100 
L 3047 1100 
L 3047 0 
L 2419 0 
L 2419 1100 
L 313 1100 
L 313 1709 
L 2253 4666 
z
" transform="scale(0.015625)"/>
       </defs>
       <use xlink:href="#DejaVuSans-2212"/>
       <use xlink:href="#DejaVuSans-34" x="83.789062"/>
      </g>
     </g>
    </g>
    <g id="xtick_2">
     <g id="line2d_3">
      <path d="M 152.262305 462.84375 
L 152.262305 25.918125 
" clip-path="url(#p82228b22c0)" style="fill: none; stroke: #b0b0b0; stroke-width: 0.8; stroke-linecap: square"/>
     </g>
     <g id="line2d_4">
      <g>
       <use xlink:href="#meb30fcddae" x="152.262305" y="462.84375" style="stroke: #000000; stroke-width: 0.8"/>
      </g>
     </g>
     <g id="text_2">
      <!-- −3 -->
      <g transform="translate(144.891211 477.442188) scale(0.1 -0.1)">
       <defs>
        <path id="DejaVuSans-33" d="M 2597 2516 
Q 3050 2419 3304 2112 
Q 3559 1806 3559 1356 
Q 3559 666 3084 287 
Q 2609 -91 1734 -91 
Q 1441 -91 1130 -33 
Q 819 25 488 141 
L 488 750 
Q 750 597 1062 519 
Q 1375 441 1716 441 
Q 2309 441 2620 675 
Q 2931 909 2931 1356 
Q 2931 1769 2642 2001 
Q 2353 2234 1838 2234 
L 1294 2234 
L 1294 2753 
L 1863 2753 
Q 2328 2753 2575 2939 
Q 2822 3125 2822 3475 
Q 2822 3834 2567 4026 
Q 2313 4219 1838 4219 
Q 1578 4219 1281 4162 
Q 984 4106 628 3988 
L 628 4550 
Q 988 4650 1302 4700 
Q 1616 4750 1894 4750 
Q 2613 4750 3031 4423 
Q 3450 4097 3450 3541 
Q 3450 3153 3228 2886 
Q 3006 2619 2597 2516 
z
" transform="scale(0.015625)"/>
       </defs>
       <use xlink:href="#DejaVuSans-2212"/>
       <use xlink:href="#DejaVuSans-33" x="83.789062"/>
      </g>
     </g>
    </g>
    <g id="xtick_3">
     <g id="line2d_5">
      <path d="M 251.941797 462.84375 
L 251.941797 25.918125 
" clip-path="url(#p82228b22c0)" style="fill: none; stroke: #b0b0b0; stroke-width: 0.8; stroke-linecap: square"/>
     </g>
     <g id="line2d_6">
      <g>
       <use xlink:href="#meb30fcddae" x="251.941797" y="462.84375" style="stroke: #000000; stroke-width: 0.8"/>
      </g>
     </g>
     <g id="text_3">
      <!-- −2 -->
      <g transform="translate(244.570703 477.442188) scale(0.1 -0.1)">
       <defs>
        <path id="DejaVuSans-32" d="M 1228 531 
L 3431 531 
L 3431 0 
L 469 0 
L 469 531 
Q 828 903 1448 1529 
Q 2069 2156 2228 2338 
Q 2531 2678 2651 2914 
Q 2772 3150 2772 3378 
Q 2772 3750 2511 3984 
Q 2250 4219 1831 4219 
Q 1534 4219 1204 4116 
Q 875 4013 500 3803 
L 500 4441 
Q 881 4594 1212 4672 
Q 1544 4750 1819 4750 
Q 2544 4750 2975 4387 
Q 3406 4025 3406 3419 
Q 3406 3131 3298 2873 
Q 3191 2616 2906 2266 
Q 2828 2175 2409 1742 
Q 1991 1309 1228 531 
z
" transform="scale(0.015625)"/>
       </defs>
       <use xlink:href="#DejaVuSans-2212"/>
       <use xlink:href="#DejaVuSans-32" x="83.789062"/>
      </g>
     </g>
    </g>
    <g id="xtick_4">
     <g id="line2d_7">
      <path d="M 351.621289 462.84375 
L 351.621289 25.918125 
" clip-path="url(#p82228b22c0)" style="fill: none; stroke: #b0b0b0; stroke-width: 0.8; stroke-linecap: square"/>
     </g>
     <g id="line2d_8">
      <g>
       <use xlink:href="#meb30fcddae" x="351.621289" y="462.84375" style="stroke: #000000; stroke-width: 0.8"/>
      </g>
     </g>
     <g id="text_4">
      <!-- −1 -->
      <g transform="translate(344.250195 477.442188) scale(0.1 -0.1)">
       <defs>
        <path id="DejaVuSans-31" d="M 794 531 
L 1825 531 
L 1825 4091 
L 703 3866 
L 703 4441 
L 1819 4666 
L 2450 4666 
L 2450 531 
L 3481 531 
L 3481 0 
L 794 0 
L 794 531 
z
" transform="scale(0.015625)"/>
       </defs>
       <use xlink:href="#DejaVuSans-2212"/>
       <use xlink:href="#DejaVuSans-31" x="83.789062"/>
      </g>
     </g>
    </g>
    <g id="xtick_5">
     <g id="line2d_9">
      <path d="M 451.300781 462.84375 
L 451.300781 25.918125 
" clip-path="url(#p82228b22c0)" style="fill: none; stroke: #b0b0b0; stroke-width: 0.8; stroke-linecap: square"/>
     </g>
     <g id="line2d_10">
      <g>
       <use xlink:href="#meb30fcddae" x="451.300781" y="462.84375" style="stroke: #000000; stroke-width: 0.8"/>
      </g>
     </g>
     <g id="text_5">
      <!-- 0 -->
      <g transform="translate(448.119531 477.442188) scale(0.1 -0.1)">
       <defs>
        <path id="DejaVuSans-30" d="M 2034 4250 
Q 1547 4250 1301 3770 
Q 1056 3291 1056 2328 
Q 1056 1369 1301 889 
Q 1547 409 2034 409 
Q 2525 409 2770 889 
Q 3016 1369 3016 2328 
Q 3016 3291 2770 3770 
Q 2525 4250 2034 4250 
z
M 2034 4750 
Q 2819 4750 3233 4129 
Q 3647 3509 3647 2328 
Q 3647 1150 3233 529 
Q 2819 -91 2034 -91 
Q 1250 -91 836 529 
Q 422 1150 422 2328 
Q 422 3509 836 4129 
Q 1250 4750 2034 4750 
z
" transform="scale(0.015625)"/>
       </defs>
       <use xlink:href="#DejaVuSans-30"/>
      </g>
     </g>
    </g>
    <g id="xtick_6">
     <g id="line2d_11">
      <path d="M 550.980273 462.84375 
L 550.980273 25.918125 
" clip-path="url(#p82228b22c0)" style="fill: none; stroke: #b0b0b0; stroke-width: 0.8; stroke-linecap: square"/>
     </g>
     <g id="line2d_12">
      <g>
       <use xlink:href="#meb30fcddae" x="550.980273" y="462.84375" style="stroke: #000000; stroke-width: 0.8"/>
      </g>
     </g>
     <g id="text_6">
      <!-- 1 -->
      <g transform="translate(547.799023 477.442188) scale(0.1 -0.1)">
       <use xlink:href="#DejaVuSans-31"/>
      </g>
     </g>
    </g>
    <g id="xtick_7">
     <g id="line2d_13">
      <path d="M 650.659766 462.84375 
L 650.659766 25.918125 
" clip-path="url(#p82228b22c0)" style="fill: none; stroke: #b0b0b0; stroke-width: 0.8; stroke-linecap: square"/>
     </g>
     <g id="line2d_14">
      <g>
       <use xlink:href="#meb30fcddae" x="650.659766" y="462.84375" style="stroke: #000000; stroke-width: 0.8"/>
      </g>
     </g>
     <g id="text_7">
      <!-- 2 -->
      <g transform="translate(647.478516 477.442188) scale(0.1 -0.1)">
       <use xlink:href="#DejaVuSans-32"/>
      </g>
     </g>
    </g>
    <g id="xtick_8">
     <g id="line2d_15">
      <path d="M 750.339258 462.84375 
L 750.339258 25.918125 
" clip-path="url(#p82228b22c0)" style="fill: none; stroke: #b0b0b0; stroke-width: 0.8; stroke-linecap: square"/>
     </g>
     <g id="line2d_16">
      <g>
       <use xlink:href="#meb30fcddae" x="750.339258" y="462.84375" style="stroke: #000000; stroke-width: 0.8"/>
      </g>
     </g>
     <g id="text_8">
      <!-- 3 -->
      <g transform="translate(747.158008 477.442188) scale(0.1 -0.1)">
       <use xlink:href="#DejaVuSans-33"/>
      </g>
     </g>
    </g>
    <g id="xtick_9">
     <g id="line2d_17">
      <path d="M 850.01875 462.84375 
L 850.01875 25.918125 
" clip-path="url(#p82228b22c0)" style="fill: none; stroke: #b0b0b0; stroke-width: 0.8; stroke-linecap: square"/>
     </g>
     <g id="line2d_18">
      <g>
       <use xlink:href="#meb30fcddae" x="850.01875" y="462.84375" style="stroke: #000000; stroke-width: 0.8"/>
      </g>
     </g>
     <g id="text_9">
      <!-- 4 -->
      <g transform="translate(846.8375 477.442188) scale(0.1 -0.1)">
       <use xlink:href="#DejaVuSans-34"/>
      </g>
     </g>
    </g>
    <g id="text_10">
     <!-- Ось х -->
     <g transform="translate(437.120313 491.120313) scale(0.1 -0.1)">
      <defs>
       <path id="DejaVuSans-41e" d="M 2522 4238 
Q 1834 4238 1429 3725 
Q 1025 3213 1025 2328 
Q 1025 1447 1429 934 
Q 1834 422 2522 422 
Q 3209 422 3611 934 
Q 4013 1447 4013 2328 
Q 4013 3213 3611 3725 
Q 3209 4238 2522 4238 
z
M 2522 4750 
Q 3503 4750 4090 4092 
Q 4678 3434 4678 2328 
Q 4678 1225 4090 567 
Q 3503 -91 2522 -91 
Q 1538 -91 948 565 
Q 359 1222 359 2328 
Q 359 3434 948 4092 
Q 1538 4750 2522 4750 
z
" transform="scale(0.015625)"/>
       <path id="DejaVuSans-441" d="M 3122 3366 
L 3122 2828 
Q 2878 2963 2633 3030 
Q 2388 3097 2138 3097 
Q 1578 3097 1268 2742 
Q 959 2388 959 1747 
Q 959 1106 1268 751 
Q 1578 397 2138 397 
Q 2388 397 2633 464 
Q 2878 531 3122 666 
L 3122 134 
Q 2881 22 2623 -34 
Q 2366 -91 2075 -91 
Q 1284 -91 818 406 
Q 353 903 353 1747 
Q 353 2603 823 3093 
Q 1294 3584 2113 3584 
Q 2378 3584 2631 3529 
Q 2884 3475 3122 3366 
z
" transform="scale(0.015625)"/>
       <path id="DejaVuSans-44c" d="M 2781 1038 
Q 2781 1319 2576 1466 
Q 2372 1613 1978 1613 
L 1159 1613 
L 1159 459 
L 1978 459 
Q 2372 459 2576 607 
Q 2781 756 2781 1038 
z
M 581 3500 
L 1159 3500 
L 1159 2072 
L 2003 2072 
Q 2672 2072 3033 1817 
Q 3394 1563 3394 1038 
Q 3394 513 3033 256 
Q 2672 0 2003 0 
L 581 0 
L 581 3500 
z
" transform="scale(0.015625)"/>
       <path id="DejaVuSans-20" transform="scale(0.015625)"/>
       <path id="DejaVuSans-445" d="M 3513 3500 
L 2247 1797 
L 3578 0 
L 2900 0 
L 1881 1375 
L 863 0 
L 184 0 
L 1544 1831 
L 300 3500 
L 978 3500 
L 1906 2253 
L 2834 3500 
L 3513 3500 
z
" transform="scale(0.015625)"/>
      </defs>
      <use xlink:href="#DejaVuSans-41e"/>
      <use xlink:href="#DejaVuSans-441" x="78.710938"/>
      <use xlink:href="#DejaVuSans-44c" x="133.691406"/>
      <use xlink:href="#DejaVuSans-20" x="192.626953"/>
      <use xlink:href="#DejaVuSans-445" x="224.414062"/>
     </g>
    </g>
   </g>
   <g id="matplotlib.axis_2">
    <g id="ytick_1">
     <g id="line2d_19">
      <path d="M 52.582813 462.84375 
L 850.01875 462.84375 
" clip-path="url(#p82228b22c0)" style="fill: none; stroke: #b0b0b0; stroke-width: 0.8; stroke-linecap: square"/>
     </g>
     <g id="line2d_20">
      <defs>
       <path id="mc3910acad9" d="M 0 0 
L -3.5 0 
" style="stroke: #000000; stroke-width: 0.8"/>
      </defs>
      <g>
       <use xlink:href="#mc3910acad9" x="52.582813" y="462.84375" style="stroke: #000000; stroke-width: 0.8"/>
      </g>
     </g>
     <g id="text_11">
      <!-- −30 -->
      <g transform="translate(24.478125 466.642969) scale(0.1 -0.1)">
       <use xlink:href="#DejaVuSans-2212"/>
       <use xlink:href="#DejaVuSans-33" x="83.789062"/>
       <use xlink:href="#DejaVuSans-30" x="147.412109"/>
      </g>
     </g>
    </g>
    <g id="ytick_2">
     <g id="line2d_21">
      <path d="M 52.582813 408.228047 
L 850.01875 408.228047 
" clip-path="url(#p82228b22c0)" style="fill: none; stroke: #b0b0b0; stroke-width: 0.8; stroke-linecap: square"/>
     </g>
     <g id="line2d_22">
      <g>
       <use xlink:href="#mc3910acad9" x="52.582813" y="408.228047" style="stroke: #000000; stroke-width: 0.8"/>
      </g>
     </g>
     <g id="text_12">
      <!-- −20 -->
      <g transform="translate(24.478125 412.027266) scale(0.1 -0.1)">
       <use xlink:href="#DejaVuSans-2212"/>
       <use xlink:href="#DejaVuSans-32" x="83.789062"/>
       <use xlink:href="#DejaVuSans-30" x="147.412109"/>
      </g>
     </g>
    </g>
    <g id="ytick_3">
     <g id="line2d_23">
      <path d="M 52.582813 353.612344 
L 850.01875 353.612344 
" clip-path="url(#p82228b22c0)" style="fill: none; stroke: #b0b0b0; stroke-width: 0.8; stroke-linecap: square"/>
     </g>
     <g id="line2d_24">
      <g>
       <use xlink:href="#mc3910acad9" x="52.582813" y="353.612344" style="stroke: #000000; stroke-width: 0.8"/>
      </g>
     </g>
     <g id="text_13">
      <!-- −10 -->
      <g transform="translate(24.478125 357.411563) scale(0.1 -0.1)">
       <use xlink:href="#DejaVuSans-2212"/>
       <use xlink:href="#DejaVuSans-31" x="83.789062"/>
       <use xlink:href="#DejaVuSans-30" x="147.412109"/>
      </g>
     </g>
    </g>
    <g id="ytick_4">
     <g id="line2d_25">
      <path d="M 52.582813 298.996641 
L 850.01875 298.996641 
" clip-path="url(#p82228b22c0)" style="fill: none; stroke: #b0b0b0; stroke-width: 0.8; stroke-linecap: square"/>
     </g>
     <g id="line2d_26">
      <g>
       <use xlink:href="#mc3910acad9" x="52.582813" y="298.996641" style="stroke: #000000; stroke-width: 0.8"/>
      </g>
     </g>
     <g id="text_14">
      <!-- 0 -->
      <g transform="translate(39.220313 302.795859) scale(0.1 -0.1)">
       <use xlink:href="#DejaVuSans-30"/>
      </g>
     </g>
    </g>
    <g id="ytick_5">
     <g id="line2d_27">
      <path d="M 52.582813 244.380937 
L 850.01875 244.380937 
" clip-path="url(#p82228b22c0)" style="fill: none; stroke: #b0b0b0; stroke-width: 0.8; stroke-linecap: square"/>
     </g>
     <g id="line2d_28">
      <g>
       <use xlink:href="#mc3910acad9" x="52.582813" y="244.380937" style="stroke: #000000; stroke-width: 0.8"/>
      </g>
     </g>
     <g id="text_15">
      <!-- 10 -->
      <g transform="translate(32.857813 248.180156) scale(0.1 -0.1)">
       <use xlink:href="#DejaVuSans-31"/>
       <use xlink:href="#DejaVuSans-30" x="63.623047"/>
      </g>
     </g>
    </g>
    <g id="ytick_6">
     <g id="line2d_29">
      <path d="M 52.582813 189.765234 
L 850.01875 189.765234 
" clip-path="url(#p82228b22c0)" style="fill: none; stroke: #b0b0b0; stroke-width: 0.8; stroke-linecap: square"/>
     </g>
     <g id="line2d_30">
      <g>
       <use xlink:href="#mc3910acad9" x="52.582813" y="189.765234" style="stroke: #000000; stroke-width: 0.8"/>
      </g>
     </g>
     <g id="text_16">
      <!-- 20 -->
      <g transform="translate(32.857813 193.564453) scale(0.1 -0.1)">
       <use xlink:href="#DejaVuSans-32"/>
       <use xlink:href="#DejaVuSans-30" x="63.623047"/>
      </g>
     </g>
    </g>
    <g id="ytick_7">
     <g id="line2d_31">
      <path d="M 52.582813 135.149531 
L 850.01875 135.149531 
" clip-path="url(#p82228b22c0)" style="fill: none; stroke: #b0b0b0; stroke-width: 0.8; stroke-linecap: square"/>
     </g>
     <g id="line2d_32">
      <g>
       <use xlink:href="#mc3910acad9" x="52.582813" y="135.149531" style="stroke: #000000; stroke-width: 0.8"/>
      </g>
     </g>
     <g id="text_17">
      <!-- 30 -->
      <g transform="translate(32.857813 138.94875) scale(0.1 -0.1)">
       <use xlink:href="#DejaVuSans-33"/>
       <use xlink:href="#DejaVuSans-30" x="63.623047"/>
      </g>
     </g>
    </g>
    <g id="ytick_8">
     <g id="line2d_33">
      <path d="M 52.582813 80.533828 
L 850.01875 80.533828 
" clip-path="url(#p82228b22c0)" style="fill: none; stroke: #b0b0b0; stroke-width: 0.8; stroke-linecap: square"/>
     </g>
     <g id="line2d_34">
      <g>
       <use xlink:href="#mc3910acad9" x="52.582813" y="80.533828" style="stroke: #000000; stroke-width: 0.8"/>
      </g>
     </g>
     <g id="text_18">
      <!-- 40 -->
      <g transform="translate(32.857813 84.333047) scale(0.1 -0.1)">
       <use xlink:href="#DejaVuSans-34"/>
       <use xlink:href="#DejaVuSans-30" x="63.623047"/>
      </g>
     </g>
    </g>
    <g id="ytick_9">
     <g id="line2d_35">
      <path d="M 52.582813 25.918125 
L 850.01875 25.918125 
" clip-path="url(#p82228b22c0)" style="fill: none; stroke: #b0b0b0; stroke-width: 0.8; stroke-linecap: square"/>
     </g>
     <g id="line2d_36">
      <g>
       <use xlink:href="#mc3910acad9" x="52.582813" y="25.918125" style="stroke: #000000; stroke-width: 0.8"/>
      </g>
     </g>
     <g id="text_19">
      <!-- 50 -->
      <g transform="translate(32.857813 29.717344) scale(0.1 -0.1)">
       <defs>
        <path id="DejaVuSans-35" d="M 691 4666 
L 3169 4666 
L 3169 4134 
L 1269 4134 
L 1269 2991 
Q 1406 3038 1543 3061 
Q 1681 3084 1819 3084 
Q 2600 3084 3056 2656 
Q 3513 2228 3513 1497 
Q 3513 744 3044 326 
Q 2575 -91 1722 -91 
Q 1428 -91 1123 -41 
Q 819 9 494 109 
L 494 744 
Q 775 591 1075 516 
Q 1375 441 1709 441 
Q 2250 441 2565 725 
Q 2881 1009 2881 1497 
Q 2881 1984 2565 2268 
Q 2250 2553 1709 2553 
Q 1456 2553 1204 2497 
Q 953 2441 691 2322 
L 691 4666 
z
" transform="scale(0.015625)"/>
       </defs>
       <use xlink:href="#DejaVuSans-35"/>
       <use xlink:href="#DejaVuSans-30" x="63.623047"/>
      </g>
     </g>
    </g>
    <g id="text_20">
     <!-- Ось у -->
     <g transform="translate(18.398438 258.561406) rotate(-90) scale(0.1 -0.1)">
      <defs>
       <path id="DejaVuSans-443" d="M 2059 -325 
Q 1816 -950 1584 -1140 
Q 1353 -1331 966 -1331 
L 506 -1331 
L 506 -850 
L 844 -850 
Q 1081 -850 1212 -737 
Q 1344 -625 1503 -206 
L 1606 56 
L 191 3500 
L 800 3500 
L 1894 763 
L 2988 3500 
L 3597 3500 
L 2059 -325 
z
" transform="scale(0.015625)"/>
      </defs>
      <use xlink:href="#DejaVuSans-41e"/>
      <use xlink:href="#DejaVuSans-441" x="78.710938"/>
      <use xlink:href="#DejaVuSans-44c" x="133.691406"/>
      <use xlink:href="#DejaVuSans-20" x="192.626953"/>
      <use xlink:href="#DejaVuSans-443" x="224.414062"/>
     </g>
    </g>
   </g>
   <g id="line2d_37">
    <path clip-path="url(#p82228b22c0)" style="fill: none; stroke: #ff0000; stroke-width: 1.5; stroke-linecap: square"/>
   </g>
   <g id="line2d_38">
    <path d="M 452.297576 238.919367 
L 456.314962 269.183865 
L 460.332347 275.390825 
L 464.349733 278.440087 
L 468.367119 280.335789 
L 472.384504 281.65971 
L 476.40189 282.651435 
L 480.419275 283.430078 
L 484.436661 284.062427 
L 488.454047 284.589213 
L 492.471432 285.036878 
L 496.488818 285.42343 
L 500.506203 285.761618 
L 504.523589 286.060753 
L 508.540974 286.327815 
L 512.55836 286.568155 
L 516.575746 286.785951 
L 520.593131 286.98452 
L 524.610517 287.166534 
L 528.627902 287.334173 
L 532.645288 287.489235 
L 536.662674 287.633217 
L 540.680059 287.767379 
L 544.697445 287.892789 
L 548.71483 288.010358 
L 552.732216 288.120872 
L 556.749602 288.225009 
L 560.766987 288.323358 
L 564.784373 288.416438 
L 568.801758 288.504703 
L 572.819144 288.588554 
L 576.83653 288.668346 
L 580.853915 288.744398 
L 584.871301 288.816992 
L 588.888686 288.886383 
L 592.906072 288.9528 
L 596.923458 289.016449 
L 600.940843 289.077517 
L 604.958229 289.136175 
L 608.975614 289.192576 
L 612.993 289.246862 
L 617.010386 289.299162 
L 621.027771 289.349593 
L 625.045157 289.398265 
L 629.062542 289.445278 
L 633.079928 289.490723 
L 637.097314 289.534687 
L 641.114699 289.577247 
L 645.132085 289.618477 
L 649.14947 289.658445 
L 653.166856 289.697213 
L 657.184241 289.734842 
L 661.201627 289.771385 
L 665.219013 289.806893 
L 669.236398 289.841415 
L 673.253784 289.874996 
L 677.271169 289.907677 
L 681.288555 289.939498 
L 685.305941 289.970496 
L 689.323326 290.000705 
L 693.340712 290.03016 
L 697.358097 290.05889 
L 701.375483 290.086925 
L 705.392869 290.114292 
L 709.410254 290.141019 
L 713.42764 290.167128 
L 717.445025 290.192644 
L 721.462411 290.217588 
L 725.479797 290.241982 
L 729.497182 290.265846 
L 733.514568 290.289199 
L 737.531953 290.312058 
L 741.549339 290.334441 
L 745.566725 290.356364 
L 749.58411 290.377842 
L 753.601496 290.398891 
L 757.618881 290.419525 
L 761.636267 290.439756 
L 765.653653 290.459599 
L 769.671038 290.479064 
L 773.688424 290.498165 
L 777.705809 290.516912 
L 781.723195 290.535316 
L 785.74058 290.553387 
L 789.757966 290.571136 
L 793.775352 290.588571 
L 797.792737 290.605703 
L 801.810123 290.622539 
L 805.827508 290.639088 
L 809.844894 290.655358 
L 813.86228 290.671357 
L 817.879665 290.687092 
L 821.897051 290.70257 
L 825.914436 290.717799 
L 829.931822 290.732785 
L 833.949208 290.747534 
L 837.966593 290.762053 
L 841.983979 290.776347 
L 846.001364 290.790423 
L 850.01875 290.804285 
" clip-path="url(#p82228b22c0)" style="fill: none; stroke: #ff0000; stroke-width: 1.5; stroke-linecap: square"/>
   </g>
   <g id="line2d_39">
    <path clip-path="url(#p82228b22c0)" style="fill: none; stroke: #ff0000; stroke-width: 1.5; stroke-linecap: square"/>
   </g>
   <g id="line2d_40">
    <path clip-path="url(#p82228b22c0)" style="fill: none; stroke: #008000; stroke-width: 1.5; stroke-linecap: square"/>
   </g>
   <g id="line2d_41">
    <path d="M 452.297576 292.988913 
L 456.314962 292.310131 
L 460.332347 291.891092 
L 464.349733 291.559 
L 468.367119 291.275193 
L 472.384504 291.023252 
L 476.40189 290.794373 
L 480.419275 290.583188 
L 484.436661 290.386134 
L 488.454047 290.200705 
L 492.471432 290.025059 
L 496.488818 289.857793 
L 500.506203 289.697811 
L 504.523589 289.544238 
L 508.540974 289.396359 
L 512.55836 289.253584 
L 516.575746 289.11542 
L 520.593131 288.981445 
L 524.610517 288.851302 
L 528.627902 288.724678 
L 532.645288 288.601302 
L 536.662674 288.480938 
L 540.680059 288.363374 
L 544.697445 288.248423 
L 548.71483 288.13592 
L 552.732216 288.025713 
L 556.749602 287.917669 
L 560.766987 287.811663 
L 564.784373 287.707585 
L 568.801758 287.605334 
L 572.819144 287.504817 
L 576.83653 287.405947 
L 580.853915 287.308648 
L 584.871301 287.212846 
L 588.888686 287.118474 
L 592.906072 287.025469 
L 596.923458 286.933776 
L 600.940843 286.843338 
L 604.958229 286.754106 
L 608.975614 286.666034 
L 612.993 286.579077 
L 617.010386 286.493193 
L 621.027771 286.408344 
L 625.045157 286.324494 
L 629.062542 286.241607 
L 633.079928 286.159652 
L 637.097314 286.078598 
L 641.114699 285.998415 
L 645.132085 285.919077 
L 649.14947 285.840556 
L 653.166856 285.762829 
L 657.184241 285.685871 
L 661.201627 285.609661 
L 665.219013 285.534176 
L 669.236398 285.459397 
L 673.253784 285.385304 
L 677.271169 285.311879 
L 681.288555 285.239104 
L 685.305941 285.166961 
L 689.323326 285.095435 
L 693.340712 285.02451 
L 697.358097 284.954172 
L 701.375483 284.884405 
L 705.392869 284.815197 
L 709.410254 284.746533 
L 713.42764 284.678402 
L 717.445025 284.610791 
L 721.462411 284.543688 
L 725.479797 284.477083 
L 729.497182 284.410963 
L 733.514568 284.34532 
L 737.531953 284.280141 
L 741.549339 284.215419 
L 745.566725 284.151143 
L 749.58411 284.087305 
L 753.601496 284.023895 
L 757.618881 283.960904 
L 761.636267 283.898326 
L 765.653653 283.836151 
L 769.671038 283.774373 
L 773.688424 283.712982 
L 777.705809 283.651974 
L 781.723195 283.591339 
L 785.74058 283.531072 
L 789.757966 283.471166 
L 793.775352 283.411615 
L 797.792737 283.352411 
L 801.810123 283.29355 
L 805.827508 283.235026 
L 809.844894 283.176832 
L 813.86228 283.118963 
L 817.879665 283.061413 
L 821.897051 283.004179 
L 825.914436 282.947253 
L 829.931822 282.890633 
L 833.949208 282.834311 
L 837.966593 282.778285 
L 841.983979 282.722549 
L 846.001364 282.667098 
L 850.01875 282.61193 
" clip-path="url(#p82228b22c0)" style="fill: none; stroke: #008000; stroke-width: 1.5; stroke-linecap: square"/>
   </g>
   <g id="line2d_42">
    <path clip-path="url(#p82228b22c0)" style="fill: none; stroke: #008000; stroke-width: 1.5; stroke-linecap: square"/>
   </g>
   <g id="line2d_43">
    <path clip-path="url(#p82228b22c0)" style="fill: none; stroke: #0000ff; stroke-width: 1.5; stroke-linecap: square"/>
   </g>
   <g id="line2d_44">
    <path d="M 452.297576 293.529609 
L 456.314962 293.473452 
L 460.332347 293.386116 
L 464.349733 293.276385 
L 468.367119 293.148152 
L 472.384504 293.003783 
L 476.40189 292.844913 
L 480.419275 292.672763 
L 484.436661 292.488288 
L 488.454047 292.292262 
L 492.471432 292.085329 
L 496.488818 291.868038 
L 500.506203 291.64086 
L 504.523589 291.404208 
L 508.540974 291.158447 
L 512.55836 290.903903 
L 516.575746 290.640869 
L 520.593131 290.369611 
L 524.610517 290.090371 
L 528.627902 289.803372 
L 532.645288 289.508816 
L 536.662674 289.206895 
L 540.680059 288.897782 
L 544.697445 288.581642 
L 548.71483 288.258628 
L 552.732216 287.928882 
L 556.749602 287.59254 
L 560.766987 287.249728 
L 564.784373 286.900567 
L 568.801758 286.545169 
L 572.819144 286.183643 
L 576.83653 285.81609 
L 580.853915 285.442608 
L 584.871301 285.063289 
L 588.888686 284.678222 
L 592.906072 284.287492 
L 596.923458 283.891179 
L 600.940843 283.489361 
L 604.958229 283.082112 
L 608.975614 282.669504 
L 612.993 282.251605 
L 617.010386 281.828483 
L 621.027771 281.400199 
L 625.045157 280.966817 
L 629.062542 280.528394 
L 633.079928 280.084989 
L 637.097314 279.636657 
L 641.114699 279.183452 
L 645.132085 278.725424 
L 649.14947 278.262625 
L 653.166856 277.795104 
L 657.184241 277.322906 
L 661.201627 276.846079 
L 665.219013 276.364667 
L 669.236398 275.878712 
L 673.253784 275.388258 
L 677.271169 274.893345 
L 681.288555 274.394013 
L 685.305941 273.8903 
L 689.323326 273.382245 
L 693.340712 272.869884 
L 697.358097 272.353253 
L 701.375483 271.832386 
L 705.392869 271.30732 
L 709.410254 270.778085 
L 713.42764 270.244716 
L 717.445025 269.707244 
L 721.462411 269.1657 
L 725.479797 268.620114 
L 729.497182 268.070517 
L 733.514568 267.516937 
L 737.531953 266.959402 
L 741.549339 266.397941 
L 745.566725 265.83258 
L 749.58411 265.263347 
L 753.601496 264.690268 
L 757.618881 264.113368 
L 761.636267 263.532673 
L 765.653653 262.948206 
L 769.671038 262.359993 
L 773.688424 261.768057 
L 777.705809 261.172421 
L 781.723195 260.573108 
L 785.74058 259.970141 
L 789.757966 259.363541 
L 793.775352 258.753331 
L 797.792737 258.139531 
L 801.810123 257.522162 
L 805.827508 256.901244 
L 809.844894 256.276799 
L 813.86228 255.648846 
L 817.879665 255.017404 
L 821.897051 254.382492 
L 825.914436 253.744129 
L 829.931822 253.102335 
L 833.949208 252.457126 
L 837.966593 251.808522 
L 841.983979 251.156539 
L 846.001364 250.501195 
L 850.01875 249.842508 
" clip-path="url(#p82228b22c0)" style="fill: none; stroke: #0000ff; stroke-width: 1.5; stroke-linecap: square"/>
   </g>
   <g id="line2d_45">
    <path clip-path="url(#p82228b22c0)" style="fill: none; stroke: #0000ff; stroke-width: 1.5; stroke-linecap: square"/>
   </g>
   <g id="patch_3">
    <path d="M 52.582813 462.84375 
L 52.582813 25.918125 
" style="fill: none; stroke: #000000; stroke-width: 0.8; stroke-linejoin: miter; stroke-linecap: square"/>
   </g>
   <g id="patch_4">
    <path d="M 850.01875 462.84375 
L 850.01875 25.918125 
" style="fill: none; stroke: #000000; stroke-width: 0.8; stroke-linejoin: miter; stroke-linecap: square"/>
   </g>
   <g id="patch_5">
    <path d="M 52.582812 462.84375 
L 850.01875 462.84375 
" style="fill: none; stroke: #000000; stroke-width: 0.8; stroke-linejoin: miter; stroke-linecap: square"/>
   </g>
   <g id="patch_6">
    <path d="M 52.582812 25.918125 
L 850.01875 25.918125 
" style="fill: none; stroke: #000000; stroke-width: 0.8; stroke-linejoin: miter; stroke-linecap: square"/>
   </g>
   <g id="text_21">
    <!-- График функции f(x) -->
    <g transform="translate(385.233281 19.918125) scale(0.12 -0.12)">
     <defs>
      <path id="DejaVuSans-413" d="M 628 0 
L 628 4666 
L 3531 4666 
L 3531 4134 
L 1259 4134 
L 1259 0 
L 628 0 
z
" transform="scale(0.015625)"/>
      <path id="DejaVuSans-440" d="M 1159 525 
L 1159 -1331 
L 581 -1331 
L 581 3500 
L 1159 3500 
L 1159 2969 
Q 1341 3281 1617 3432 
Q 1894 3584 2278 3584 
Q 2916 3584 3314 3078 
Q 3713 2572 3713 1747 
Q 3713 922 3314 415 
Q 2916 -91 2278 -91 
Q 1894 -91 1617 61 
Q 1341 213 1159 525 
z
M 3116 1747 
Q 3116 2381 2855 2742 
Q 2594 3103 2138 3103 
Q 1681 3103 1420 2742 
Q 1159 2381 1159 1747 
Q 1159 1113 1420 752 
Q 1681 391 2138 391 
Q 2594 391 2855 752 
Q 3116 1113 3116 1747 
z
" transform="scale(0.015625)"/>
      <path id="DejaVuSans-430" d="M 2194 1759 
Q 1497 1759 1228 1600 
Q 959 1441 959 1056 
Q 959 750 1161 570 
Q 1363 391 1709 391 
Q 2188 391 2477 730 
Q 2766 1069 2766 1631 
L 2766 1759 
L 2194 1759 
z
M 3341 1997 
L 3341 0 
L 2766 0 
L 2766 531 
Q 2569 213 2275 61 
Q 1981 -91 1556 -91 
Q 1019 -91 701 211 
Q 384 513 384 1019 
Q 384 1609 779 1909 
Q 1175 2209 1959 2209 
L 2766 2209 
L 2766 2266 
Q 2766 2663 2505 2880 
Q 2244 3097 1772 3097 
Q 1472 3097 1187 3025 
Q 903 2953 641 2809 
L 641 3341 
Q 956 3463 1253 3523 
Q 1550 3584 1831 3584 
Q 2591 3584 2966 3190 
Q 3341 2797 3341 1997 
z
" transform="scale(0.015625)"/>
      <path id="DejaVuSans-444" d="M 947 1747 
Q 947 1013 1173 702 
Q 1400 391 1784 391 
Q 2091 391 2447 916 
L 2447 2578 
Q 2091 3103 1784 3103 
Q 1400 3103 1173 2792 
Q 947 2481 947 1747 
z
M 2447 -1331 
L 2447 447 
Q 2269 153 2064 31 
Q 1859 -91 1600 -91 
Q 1078 -91 714 392 
Q 350 875 350 1734 
Q 350 2594 714 3089 
Q 1078 3584 1600 3584 
Q 1859 3584 2064 3465 
Q 2269 3347 2447 3053 
L 2447 4666 
L 3025 4666 
L 3025 3053 
Q 3203 3347 3408 3465 
Q 3613 3584 3872 3584 
Q 4394 3584 4758 3089 
Q 5122 2594 5122 1734 
Q 5122 875 4758 392 
Q 4394 -91 3872 -91 
Q 3613 -91 3408 31 
Q 3203 153 3025 447 
L 3025 -1331 
L 2447 -1331 
z
M 4525 1747 
Q 4525 2481 4298 2792 
Q 4072 3103 3688 3103 
Q 3381 3103 3025 2578 
L 3025 916 
Q 3381 391 3688 391 
Q 4072 391 4298 702 
Q 4525 1013 4525 1747 
z
" transform="scale(0.015625)"/>
      <path id="DejaVuSans-438" d="M 3578 3500 
L 3578 0 
L 3006 0 
L 3006 2809 
L 1319 0 
L 581 0 
L 581 3500 
L 1153 3500 
L 1153 697 
L 2838 3500 
L 3578 3500 
z
" transform="scale(0.015625)"/>
      <path id="DejaVuSans-43a" d="M 581 3500 
L 1153 3500 
L 1153 1856 
L 2775 3500 
L 3481 3500 
L 2144 2147 
L 3653 0 
L 3009 0 
L 1769 1766 
L 1153 1141 
L 1153 0 
L 581 0 
L 581 3500 
z
" transform="scale(0.015625)"/>
      <path id="DejaVuSans-43d" d="M 581 3500 
L 1159 3500 
L 1159 2072 
L 3025 2072 
L 3025 3500 
L 3603 3500 
L 3603 0 
L 3025 0 
L 3025 1613 
L 1159 1613 
L 1159 0 
L 581 0 
L 581 3500 
z
" transform="scale(0.015625)"/>
      <path id="DejaVuSans-446" d="M 3603 0 
L 581 0 
L 581 3500 
L 1159 3500 
L 1159 459 
L 3025 459 
L 3025 3500 
L 3603 3500 
L 3603 459 
L 4063 459 
L 4063 -884 
L 3603 -884 
L 3603 0 
z
" transform="scale(0.015625)"/>
      <path id="DejaVuSans-66" d="M 2375 4863 
L 2375 4384 
L 1825 4384 
Q 1516 4384 1395 4259 
Q 1275 4134 1275 3809 
L 1275 3500 
L 2222 3500 
L 2222 3053 
L 1275 3053 
L 1275 0 
L 697 0 
L 697 3053 
L 147 3053 
L 147 3500 
L 697 3500 
L 697 3744 
Q 697 4328 969 4595 
Q 1241 4863 1831 4863 
L 2375 4863 
z
" transform="scale(0.015625)"/>
      <path id="DejaVuSans-28" d="M 1984 4856 
Q 1566 4138 1362 3434 
Q 1159 2731 1159 2009 
Q 1159 1288 1364 580 
Q 1569 -128 1984 -844 
L 1484 -844 
Q 1016 -109 783 600 
Q 550 1309 550 2009 
Q 550 2706 781 3412 
Q 1013 4119 1484 4856 
L 1984 4856 
z
" transform="scale(0.015625)"/>
      <path id="DejaVuSans-78" d="M 3513 3500 
L 2247 1797 
L 3578 0 
L 2900 0 
L 1881 1375 
L 863 0 
L 184 0 
L 1544 1831 
L 300 3500 
L 978 3500 
L 1906 2253 
L 2834 3500 
L 3513 3500 
z
" transform="scale(0.015625)"/>
      <path id="DejaVuSans-29" d="M 513 4856 
L 1013 4856 
Q 1481 4119 1714 3412 
Q 1947 2706 1947 2009 
Q 1947 1309 1714 600 
Q 1481 -109 1013 -844 
L 513 -844 
Q 928 -128 1133 580 
Q 1338 1288 1338 2009 
Q 1338 2731 1133 3434 
Q 928 4138 513 4856 
z
" transform="scale(0.015625)"/>
     </defs>
     <use xlink:href="#DejaVuSans-413"/>
     <use xlink:href="#DejaVuSans-440" x="60.986328"/>
     <use xlink:href="#DejaVuSans-430" x="124.462891"/>
     <use xlink:href="#DejaVuSans-444" x="185.742188"/>
     <use xlink:href="#DejaVuSans-438" x="271.240234"/>
     <use xlink:href="#DejaVuSans-43a" x="336.230469"/>
     <use xlink:href="#DejaVuSans-20" x="396.630859"/>
     <use xlink:href="#DejaVuSans-444" x="428.417969"/>
     <use xlink:href="#DejaVuSans-443" x="513.916016"/>
     <use xlink:href="#DejaVuSans-43d" x="573.095703"/>
     <use xlink:href="#DejaVuSans-43a" x="638.476562"/>
     <use xlink:href="#DejaVuSans-446" x="698.876953"/>
     <use xlink:href="#DejaVuSans-438" x="766.943359"/>
     <use xlink:href="#DejaVuSans-438" x="831.933594"/>
     <use xlink:href="#DejaVuSans-20" x="896.923828"/>
     <use xlink:href="#DejaVuSans-66" x="928.710938"/>
     <use xlink:href="#DejaVuSans-28" x="963.916016"/>
     <use xlink:href="#DejaVuSans-78" x="1002.929688"/>
     <use xlink:href="#DejaVuSans-29" x="1062.109375"/>
    </g>
   </g>
   <g id="legend_1">
    <g id="patch_7">
     <path d="M 749.05625 78.14 
L 843.01875 78.14 
Q 845.01875 78.14 845.01875 76.14 
L 845.01875 32.918125 
Q 845.01875 30.918125 843.01875 30.918125 
L 749.05625 30.918125 
Q 747.05625 30.918125 747.05625 32.918125 
L 747.05625 76.14 
Q 747.05625 78.14 749.05625 78.14 
z
" style="fill: #ffffff; opacity: 0.8; stroke: #cccccc; stroke-linejoin: miter"/>
    </g>
    <g id="line2d_46">
     <path d="M 751.05625 39.079062 
L 761.05625 39.079062 
L 771.05625 39.079062 
" style="fill: none; stroke: #ff0000; stroke-width: 1.5; stroke-linecap: square"/>
    </g>
    <g id="text_22">
     <!-- α=1, β=0.5 -->
     <g transform="translate(779.05625 42.579062) scale(0.1 -0.1)">
      <defs>
       <path id="DejaVuSans-3b1" d="M 2644 1628 
L 2506 2350 
Q 2366 3091 1809 3091 
Q 1391 3091 1200 2747 
Q 959 2316 959 1747 
Q 959 1059 1194 731 
Q 1431 397 1809 397 
Q 2228 397 2453 1063 
L 2644 1628 
z
M 2966 2584 
L 3275 3500 
L 3788 3500 
L 3147 1603 
L 3272 919 
Q 3300 766 3409 638 
Q 3538 488 3638 488 
L 3913 488 
L 3913 0 
L 3569 0 
Q 3275 0 3013 263 
Q 2884 394 2831 669 
Q 2688 322 2394 50 
Q 2256 -78 1809 -78 
Q 1075 -78 719 397 
Q 353 888 353 1747 
Q 353 2666 750 3097 
Q 1191 3578 1809 3578 
Q 2781 3578 2966 2584 
z
" transform="scale(0.015625)"/>
       <path id="DejaVuSans-3d" d="M 678 2906 
L 4684 2906 
L 4684 2381 
L 678 2381 
L 678 2906 
z
M 678 1631 
L 4684 1631 
L 4684 1100 
L 678 1100 
L 678 1631 
z
" transform="scale(0.015625)"/>
       <path id="DejaVuSans-2c" d="M 750 794 
L 1409 794 
L 1409 256 
L 897 -744 
L 494 -744 
L 750 256 
L 750 794 
z
" transform="scale(0.015625)"/>
       <path id="DejaVuSans-3b2" d="M 1178 216 
L 1178 -1331 
L 600 -1331 
L 600 3478 
Q 600 4903 1931 4903 
Q 3288 4903 3288 3700 
Q 3288 2844 2750 2531 
Q 3625 2250 3625 1416 
Q 3625 -66 2119 -66 
Q 1456 -66 1178 216 
z
M 1178 966 
Q 1525 425 2141 425 
Q 3041 425 3041 1406 
Q 3041 2288 1591 2219 
L 1591 2750 
Q 2725 2750 2725 3750 
Q 2725 4434 1994 4434 
Q 1178 4434 1178 3459 
L 1178 966 
z
" transform="scale(0.015625)"/>
       <path id="DejaVuSans-2e" d="M 684 794 
L 1344 794 
L 1344 0 
L 684 0 
L 684 794 
z
" transform="scale(0.015625)"/>
      </defs>
      <use xlink:href="#DejaVuSans-3b1"/>
      <use xlink:href="#DejaVuSans-3d" x="65.917969"/>
      <use xlink:href="#DejaVuSans-31" x="149.707031"/>
      <use xlink:href="#DejaVuSans-2c" x="213.330078"/>
      <use xlink:href="#DejaVuSans-20" x="245.117188"/>
      <use xlink:href="#DejaVuSans-3b2" x="276.904297"/>
      <use xlink:href="#DejaVuSans-3d" x="340.722656"/>
      <use xlink:href="#DejaVuSans-30" x="424.511719"/>
      <use xlink:href="#DejaVuSans-2e" x="488.134766"/>
      <use xlink:href="#DejaVuSans-35" x="519.921875"/>
     </g>
    </g>
    <g id="line2d_47">
     <path d="M 751.05625 53.819687 
L 761.05625 53.819687 
L 771.05625 53.819687 
" style="fill: none; stroke: #008000; stroke-width: 1.5; stroke-linecap: square"/>
    </g>
    <g id="text_23">
     <!-- α=1, β=-0.5 -->
     <g transform="translate(779.05625 57.319687) scale(0.1 -0.1)">
      <defs>
       <path id="DejaVuSans-2d" d="M 313 2009 
L 1997 2009 
L 1997 1497 
L 313 1497 
L 313 2009 
z
" transform="scale(0.015625)"/>
      </defs>
      <use xlink:href="#DejaVuSans-3b1"/>
      <use xlink:href="#DejaVuSans-3d" x="65.917969"/>
      <use xlink:href="#DejaVuSans-31" x="149.707031"/>
      <use xlink:href="#DejaVuSans-2c" x="213.330078"/>
      <use xlink:href="#DejaVuSans-20" x="245.117188"/>
      <use xlink:href="#DejaVuSans-3b2" x="276.904297"/>
      <use xlink:href="#DejaVuSans-3d" x="340.722656"/>
      <use xlink:href="#DejaVuSans-2d" x="424.511719"/>
      <use xlink:href="#DejaVuSans-30" x="460.595703"/>
      <use xlink:href="#DejaVuSans-2e" x="524.21875"/>
      <use xlink:href="#DejaVuSans-35" x="556.005859"/>
     </g>
    </g>
    <g id="line2d_48">
     <path d="M 751.05625 68.560312 
L 761.05625 68.560312 
L 771.05625 68.560312 
" style="fill: none; stroke: #0000ff; stroke-width: 1.5; stroke-linecap: square"/>
    </g>
    <g id="text_24">
     <!-- α=1, β=-1.5 -->
     <g transform="translate(779.05625 72.060312) scale(0.1 -0.1)">
      <use xlink:href="#DejaVuSans-3b1"/>
      <use xlink:href="#DejaVuSans-3d" x="65.917969"/>
      <use xlink:href="#DejaVuSans-31" x="149.707031"/>
      <use xlink:href="#DejaVuSans-2c" x="213.330078"/>
      <use xlink:href="#DejaVuSans-20" x="245.117188"/>
      <use xlink:href="#DejaVuSans-3b2" x="276.904297"/>
      <use xlink:href="#DejaVuSans-3d" x="340.722656"/>
      <use xlink:href="#DejaVuSans-2d" x="424.511719"/>
      <use xlink:href="#DejaVuSans-31" x="460.595703"/>
      <use xlink:href="#DejaVuSans-2e" x="524.21875"/>
      <use xlink:href="#DejaVuSans-35" x="556.005859"/>
     </g>
    </g>
   </g>
  </g>
 </g>
 <defs>
  <clipPath id="p82228b22c0">
   <rect x="52.582813" y="25.918125" width="797.435938" height="436.925625"/>
  </clipPath>
 </defs>
</svg>
